<svg width="269" height="251" viewBox="0 0 269 251" fill="none" xmlns="http://www.w3.org/2000/svg">
<path d="M55.0954 166.904C78.1908 139.473 -30.4967 85.6919 35.342 85.3119C101.181 84.9319 134.381 -16.0808 132.611 27.2055C130.84 70.4918 157.855 45.9755 194.486 39.4224C231.117 32.8694 163.936 100.506 148.403 121.395C132.871 142.285 228.57 93.0725 202.682 169.488C176.794 245.903 115.397 165.786 104.395 180.583C93.3931 195.379 32.0001 194.334 55.0954 166.904Z" fill="#E1EFF3" stroke="#E1EFF3"/>
<path d="M221.873 143.849C234.867 123.301 258.769 166.932 261.974 177.63C265.18 188.327 225.527 174.396 212.836 216.503C200.146 258.61 158.019 222.125 131.53 235.52C105.041 248.915 78.7761 220.78 85.8611 201.262C92.9461 181.744 121.715 223.338 123.999 159.022C126.282 94.7069 158.934 89.4322 171.616 95.6242C184.297 101.816 208.879 164.396 221.873 143.849Z" fill="#4F8495"/>
</svg>
