<svg width="36" height="40" viewBox="0 0 36 40" fill="none" xmlns="http://www.w3.org/2000/svg">
<path d="M30.3751 29.8875C33.6574 26.6035 35.5012 22.1505 35.5012 17.5075C35.5012 12.8644 33.6574 8.41145 30.3751 5.12748C28.7504 3.50167 26.8212 2.21194 24.6979 1.332C22.5745 0.452057 20.2986 -0.000854492 18.0001 -0.000854492C15.7016 -0.000854492 13.4257 0.452057 11.3023 1.332C9.17898 2.21194 7.24982 3.50167 5.62511 5.12748C2.34284 8.41145 0.499023 12.8644 0.499023 17.5075C0.499023 22.1505 2.34284 26.6035 5.62511 29.8875L9.42761 33.635L14.5351 38.5975L14.8676 38.8925C16.8051 40.4625 19.6426 40.3625 21.4676 38.5975L27.5551 32.6725L30.3751 29.8875ZM18.0001 25C16.011 25 14.1033 24.2098 12.6968 22.8033C11.2903 21.3968 10.5001 19.4891 10.5001 17.5C10.5001 15.5109 11.2903 13.6032 12.6968 12.1967C14.1033 10.7902 16.011 9.99998 18.0001 9.99998C19.9892 9.99998 21.8969 10.7902 23.3034 12.1967C24.7099 13.6032 25.5001 15.5109 25.5001 17.5C25.5001 19.4891 24.7099 21.3968 23.3034 22.8033C21.8969 24.2098 19.9892 25 18.0001 25Z" fill="#1A5163"/>
</svg>
