<svg width="356" height="522" viewBox="0 0 356 522" fill="none" xmlns="http://www.w3.org/2000/svg">
<circle cx="153.714" cy="50" r="49" stroke="white" stroke-width="2"/>
<circle cx="153.714" cy="50" r="40" fill="white"/>
<path d="M152.434 37.528C152.434 36.724 152.356 36.04 152.2 35.476C152.056 34.912 151.858 34.45 151.606 34.09C151.354 33.73 151.054 33.472 150.706 33.316C150.37 33.148 150.01 33.064 149.626 33.064C149.242 33.064 148.882 33.154 148.546 33.334C148.21 33.502 147.916 33.766 147.664 34.126C147.412 34.486 147.208 34.948 147.052 35.512C146.908 36.076 146.836 36.748 146.836 37.528C146.836 38.98 147.076 40.09 147.556 40.858C148.048 41.626 148.738 42.01 149.626 42.01C150.526 42.01 151.216 41.626 151.696 40.858C152.188 40.09 152.434 38.98 152.434 37.528ZM149.626 43.234C148.99 43.234 148.408 43.12 147.88 42.892C147.364 42.652 146.914 42.298 146.53 41.83C146.158 41.35 145.87 40.756 145.666 40.048C145.462 39.328 145.36 38.488 145.36 37.528C145.36 36.496 145.48 35.62 145.72 34.9C145.96 34.18 146.278 33.592 146.674 33.136C147.07 32.68 147.52 32.35 148.024 32.146C148.54 31.942 149.074 31.84 149.626 31.84C150.178 31.84 150.712 31.948 151.228 32.164C151.744 32.368 152.2 32.698 152.596 33.154C152.992 33.61 153.31 34.198 153.55 34.918C153.79 35.638 153.91 36.508 153.91 37.528C153.91 38.488 153.808 39.328 153.604 40.048C153.4 40.756 153.106 41.35 152.722 41.83C152.35 42.298 151.9 42.652 151.372 42.892C150.844 43.12 150.262 43.234 149.626 43.234ZM156.416 34.54C156.26 34.48 156.128 34.39 156.02 34.27C155.924 34.15 155.876 34 155.876 33.82C155.876 33.628 155.924 33.472 156.02 33.352C156.116 33.232 156.284 33.124 156.524 33.028L159.044 31.93H159.386C159.626 31.93 159.818 32.002 159.962 32.146C160.106 32.29 160.178 32.482 160.178 32.722V43.018C160.106 43.042 160.01 43.066 159.89 43.09C159.77 43.126 159.638 43.144 159.494 43.144C158.978 43.144 158.72 42.922 158.72 42.478V33.46L156.416 34.54ZM131.913 59.094V62.964C131.841 62.988 131.745 63.012 131.625 63.036C131.505 63.072 131.373 63.09 131.229 63.09C130.701 63.09 130.437 62.868 130.437 62.424V52.848C130.437 52.656 130.485 52.512 130.581 52.416C130.677 52.308 130.827 52.224 131.031 52.164C131.379 52.056 131.799 51.978 132.291 51.93C132.795 51.882 133.281 51.858 133.749 51.858C135.273 51.858 136.383 52.182 137.079 52.83C137.787 53.466 138.141 54.33 138.141 55.422C138.141 56.538 137.781 57.432 137.061 58.104C136.341 58.764 135.231 59.094 133.731 59.094H131.913ZM133.641 57.87C134.601 57.87 135.345 57.672 135.873 57.276C136.401 56.88 136.665 56.268 136.665 55.44C136.665 54.624 136.407 54.03 135.891 53.658C135.387 53.274 134.661 53.082 133.713 53.082C133.389 53.082 133.065 53.1 132.741 53.136C132.429 53.16 132.147 53.196 131.895 53.244V57.87H133.641ZM144.092 62.064C144.596 62.064 145.01 62.016 145.334 61.92C145.67 61.812 145.91 61.71 146.054 61.614V59.004L143.822 59.238C143.198 59.298 142.736 59.442 142.436 59.67C142.136 59.886 141.986 60.21 141.986 60.642C141.986 61.098 142.16 61.452 142.508 61.704C142.856 61.944 143.384 62.064 144.092 62.064ZM144.074 54.45C145.118 54.45 145.946 54.684 146.558 55.152C147.17 55.62 147.476 56.358 147.476 57.366V61.632C147.476 61.896 147.422 62.1 147.314 62.244C147.218 62.376 147.068 62.502 146.864 62.622C146.576 62.79 146.192 62.934 145.712 63.054C145.244 63.186 144.704 63.252 144.092 63.252C142.964 63.252 142.088 63.03 141.464 62.586C140.852 62.142 140.546 61.5 140.546 60.66C140.546 59.868 140.804 59.274 141.32 58.878C141.836 58.47 142.562 58.218 143.498 58.122L146.054 57.87V57.366C146.054 56.766 145.874 56.328 145.514 56.052C145.154 55.776 144.668 55.638 144.056 55.638C143.552 55.638 143.078 55.71 142.634 55.854C142.19 55.998 141.794 56.16 141.446 56.34C141.35 56.256 141.26 56.16 141.176 56.052C141.104 55.944 141.068 55.824 141.068 55.692C141.068 55.524 141.11 55.386 141.194 55.278C141.278 55.17 141.41 55.068 141.59 54.972C141.914 54.804 142.286 54.678 142.706 54.594C143.126 54.498 143.582 54.45 144.074 54.45ZM156.872 60.786C156.872 61.554 156.59 62.154 156.026 62.586C155.462 63.018 154.646 63.234 153.578 63.234C153.122 63.234 152.702 63.192 152.318 63.108C151.934 63.036 151.604 62.94 151.328 62.82C151.064 62.688 150.854 62.544 150.698 62.388C150.554 62.22 150.482 62.052 150.482 61.884C150.482 61.74 150.518 61.602 150.59 61.47C150.674 61.338 150.794 61.224 150.95 61.128C151.274 61.368 151.652 61.584 152.084 61.776C152.516 61.956 153.008 62.046 153.56 62.046C154.808 62.046 155.432 61.626 155.432 60.786C155.432 60.102 155.018 59.658 154.19 59.454L152.696 59.058C151.964 58.866 151.43 58.59 151.094 58.23C150.758 57.858 150.59 57.384 150.59 56.808C150.59 56.496 150.65 56.196 150.77 55.908C150.902 55.62 151.1 55.368 151.364 55.152C151.628 54.936 151.952 54.768 152.336 54.648C152.732 54.516 153.194 54.45 153.722 54.45C154.562 54.45 155.24 54.576 155.756 54.828C156.272 55.068 156.53 55.35 156.53 55.674C156.53 55.83 156.488 55.968 156.404 56.088C156.332 56.208 156.23 56.298 156.098 56.358C155.882 56.214 155.576 56.058 155.18 55.89C154.784 55.722 154.316 55.638 153.776 55.638C153.236 55.638 152.804 55.74 152.48 55.944C152.168 56.148 152.012 56.436 152.012 56.808C152.012 57.084 152.102 57.318 152.282 57.51C152.462 57.702 152.762 57.846 153.182 57.942L154.424 58.248C155.24 58.452 155.852 58.758 156.26 59.166C156.668 59.562 156.872 60.102 156.872 60.786ZM165.823 60.786C165.823 61.554 165.541 62.154 164.977 62.586C164.413 63.018 163.597 63.234 162.529 63.234C162.073 63.234 161.653 63.192 161.269 63.108C160.885 63.036 160.555 62.94 160.279 62.82C160.015 62.688 159.805 62.544 159.649 62.388C159.505 62.22 159.433 62.052 159.433 61.884C159.433 61.74 159.469 61.602 159.541 61.47C159.625 61.338 159.745 61.224 159.901 61.128C160.225 61.368 160.603 61.584 161.035 61.776C161.467 61.956 161.959 62.046 162.511 62.046C163.759 62.046 164.383 61.626 164.383 60.786C164.383 60.102 163.969 59.658 163.141 59.454L161.647 59.058C160.915 58.866 160.381 58.59 160.045 58.23C159.709 57.858 159.541 57.384 159.541 56.808C159.541 56.496 159.601 56.196 159.721 55.908C159.853 55.62 160.051 55.368 160.315 55.152C160.579 54.936 160.903 54.768 161.287 54.648C161.683 54.516 162.145 54.45 162.673 54.45C163.513 54.45 164.191 54.576 164.707 54.828C165.223 55.068 165.481 55.35 165.481 55.674C165.481 55.83 165.439 55.968 165.355 56.088C165.283 56.208 165.181 56.298 165.049 56.358C164.833 56.214 164.527 56.058 164.131 55.89C163.735 55.722 163.267 55.638 162.727 55.638C162.187 55.638 161.755 55.74 161.431 55.944C161.119 56.148 160.963 56.436 160.963 56.808C160.963 57.084 161.053 57.318 161.233 57.51C161.413 57.702 161.713 57.846 162.133 57.942L163.375 58.248C164.191 58.452 164.803 58.758 165.211 59.166C165.619 59.562 165.823 60.102 165.823 60.786ZM176.716 58.842C176.716 59.514 176.62 60.12 176.428 60.66C176.236 61.2 175.96 61.662 175.6 62.046C175.252 62.43 174.826 62.724 174.322 62.928C173.818 63.132 173.254 63.234 172.63 63.234C172.006 63.234 171.442 63.132 170.938 62.928C170.434 62.724 170.002 62.43 169.642 62.046C169.282 61.662 169.006 61.2 168.814 60.66C168.622 60.12 168.526 59.514 168.526 58.842C168.526 58.17 168.622 57.564 168.814 57.024C169.018 56.484 169.3 56.022 169.66 55.638C170.02 55.254 170.452 54.96 170.956 54.756C171.46 54.552 172.018 54.45 172.63 54.45C173.242 54.45 173.8 54.552 174.304 54.756C174.808 54.96 175.234 55.254 175.582 55.638C175.942 56.022 176.218 56.484 176.41 57.024C176.614 57.564 176.716 58.17 176.716 58.842ZM172.63 55.638C171.814 55.638 171.172 55.92 170.704 56.484C170.236 57.048 170.002 57.834 170.002 58.842C170.002 59.862 170.23 60.654 170.686 61.218C171.154 61.77 171.802 62.046 172.63 62.046C173.458 62.046 174.1 61.764 174.556 61.2C175.012 60.636 175.24 59.85 175.24 58.842C175.24 57.834 175.006 57.048 174.538 56.484C174.082 55.92 173.446 55.638 172.63 55.638Z" fill="#FC9685"/>
<circle cx="244" cy="254" r="49" stroke="white" stroke-width="2"/>
<circle cx="244" cy="255" r="40" fill="white"/>
<path d="M241.287 243.528C241.287 242.724 241.209 242.04 241.053 241.476C240.909 240.912 240.711 240.45 240.459 240.09C240.207 239.73 239.907 239.472 239.559 239.316C239.223 239.148 238.863 239.064 238.479 239.064C238.095 239.064 237.735 239.154 237.399 239.334C237.063 239.502 236.769 239.766 236.517 240.126C236.265 240.486 236.061 240.948 235.905 241.512C235.761 242.076 235.689 242.748 235.689 243.528C235.689 244.98 235.929 246.09 236.409 246.858C236.901 247.626 237.591 248.01 238.479 248.01C239.379 248.01 240.069 247.626 240.549 246.858C241.041 246.09 241.287 244.98 241.287 243.528ZM238.479 249.234C237.843 249.234 237.261 249.12 236.733 248.892C236.217 248.652 235.767 248.298 235.383 247.83C235.011 247.35 234.723 246.756 234.519 246.048C234.315 245.328 234.213 244.488 234.213 243.528C234.213 242.496 234.333 241.62 234.573 240.9C234.813 240.18 235.131 239.592 235.527 239.136C235.923 238.68 236.373 238.35 236.877 238.146C237.393 237.942 237.927 237.84 238.479 237.84C239.031 237.84 239.565 237.948 240.081 238.164C240.597 238.368 241.053 238.698 241.449 239.154C241.845 239.61 242.163 240.198 242.403 240.918C242.643 241.638 242.763 242.508 242.763 243.528C242.763 244.488 242.661 245.328 242.457 246.048C242.253 246.756 241.959 247.35 241.575 247.83C241.203 248.298 240.753 248.652 240.225 248.892C239.697 249.12 239.115 249.234 238.479 249.234ZM245.644 239.19C245.644 239.034 245.722 238.878 245.878 238.722C246.046 238.554 246.268 238.404 246.544 238.272C246.82 238.14 247.144 238.038 247.516 237.966C247.888 237.882 248.284 237.84 248.704 237.84C249.868 237.84 250.774 238.122 251.422 238.686C252.082 239.25 252.412 240.012 252.412 240.972C252.412 241.296 252.37 241.62 252.286 241.944C252.202 242.256 252.064 242.58 251.872 242.916C251.68 243.24 251.428 243.582 251.116 243.942C250.804 244.302 250.426 244.686 249.982 245.094L247.048 247.812H252.394C252.442 247.872 252.484 247.95 252.52 248.046C252.556 248.142 252.574 248.256 252.574 248.388C252.574 248.796 252.388 249 252.016 249H245.662C245.422 248.832 245.302 248.592 245.302 248.28C245.302 247.932 245.446 247.62 245.734 247.344L248.974 244.23C249.334 243.882 249.64 243.564 249.892 243.276C250.144 242.988 250.342 242.718 250.486 242.466C250.642 242.214 250.75 241.968 250.81 241.728C250.882 241.488 250.918 241.242 250.918 240.99C250.918 240.414 250.726 239.952 250.342 239.604C249.958 239.244 249.376 239.064 248.596 239.064C248.056 239.064 247.582 239.154 247.174 239.334C246.766 239.514 246.424 239.706 246.148 239.91C246.016 239.85 245.896 239.76 245.788 239.64C245.692 239.52 245.644 239.37 245.644 239.19ZM222.199 265.094V268.964C222.127 268.988 222.031 269.012 221.911 269.036C221.791 269.072 221.659 269.09 221.515 269.09C220.987 269.09 220.723 268.868 220.723 268.424V258.848C220.723 258.656 220.771 258.512 220.867 258.416C220.963 258.308 221.113 258.224 221.317 258.164C221.665 258.056 222.085 257.978 222.577 257.93C223.081 257.882 223.567 257.858 224.035 257.858C225.559 257.858 226.669 258.182 227.365 258.83C228.073 259.466 228.427 260.33 228.427 261.422C228.427 262.538 228.067 263.432 227.347 264.104C226.627 264.764 225.517 265.094 224.017 265.094H222.199ZM223.927 263.87C224.887 263.87 225.631 263.672 226.159 263.276C226.687 262.88 226.951 262.268 226.951 261.44C226.951 260.624 226.693 260.03 226.177 259.658C225.673 259.274 224.947 259.082 223.999 259.082C223.675 259.082 223.351 259.1 223.027 259.136C222.715 259.16 222.433 259.196 222.181 259.244V263.87H223.927ZM234.378 268.064C234.882 268.064 235.296 268.016 235.62 267.92C235.956 267.812 236.196 267.71 236.34 267.614V265.004L234.108 265.238C233.484 265.298 233.022 265.442 232.722 265.67C232.422 265.886 232.272 266.21 232.272 266.642C232.272 267.098 232.446 267.452 232.794 267.704C233.142 267.944 233.67 268.064 234.378 268.064ZM234.36 260.45C235.404 260.45 236.232 260.684 236.844 261.152C237.456 261.62 237.762 262.358 237.762 263.366V267.632C237.762 267.896 237.708 268.1 237.6 268.244C237.504 268.376 237.354 268.502 237.15 268.622C236.862 268.79 236.478 268.934 235.998 269.054C235.53 269.186 234.99 269.252 234.378 269.252C233.25 269.252 232.374 269.03 231.75 268.586C231.138 268.142 230.832 267.5 230.832 266.66C230.832 265.868 231.09 265.274 231.606 264.878C232.122 264.47 232.848 264.218 233.784 264.122L236.34 263.87V263.366C236.34 262.766 236.16 262.328 235.8 262.052C235.44 261.776 234.954 261.638 234.342 261.638C233.838 261.638 233.364 261.71 232.92 261.854C232.476 261.998 232.08 262.16 231.732 262.34C231.636 262.256 231.546 262.16 231.462 262.052C231.39 261.944 231.354 261.824 231.354 261.692C231.354 261.524 231.396 261.386 231.48 261.278C231.564 261.17 231.696 261.068 231.876 260.972C232.2 260.804 232.572 260.678 232.992 260.594C233.412 260.498 233.868 260.45 234.36 260.45ZM247.158 266.786C247.158 267.554 246.876 268.154 246.312 268.586C245.748 269.018 244.932 269.234 243.864 269.234C243.408 269.234 242.988 269.192 242.604 269.108C242.22 269.036 241.89 268.94 241.614 268.82C241.35 268.688 241.14 268.544 240.984 268.388C240.84 268.22 240.768 268.052 240.768 267.884C240.768 267.74 240.804 267.602 240.876 267.47C240.96 267.338 241.08 267.224 241.236 267.128C241.56 267.368 241.938 267.584 242.37 267.776C242.802 267.956 243.294 268.046 243.846 268.046C245.094 268.046 245.718 267.626 245.718 266.786C245.718 266.102 245.304 265.658 244.476 265.454L242.982 265.058C242.25 264.866 241.716 264.59 241.38 264.23C241.044 263.858 240.876 263.384 240.876 262.808C240.876 262.496 240.936 262.196 241.056 261.908C241.188 261.62 241.386 261.368 241.65 261.152C241.914 260.936 242.238 260.768 242.622 260.648C243.018 260.516 243.48 260.45 244.008 260.45C244.848 260.45 245.526 260.576 246.042 260.828C246.558 261.068 246.816 261.35 246.816 261.674C246.816 261.83 246.774 261.968 246.69 262.088C246.618 262.208 246.516 262.298 246.384 262.358C246.168 262.214 245.862 262.058 245.466 261.89C245.07 261.722 244.602 261.638 244.062 261.638C243.522 261.638 243.09 261.74 242.766 261.944C242.454 262.148 242.298 262.436 242.298 262.808C242.298 263.084 242.388 263.318 242.568 263.51C242.748 263.702 243.048 263.846 243.468 263.942L244.71 264.248C245.526 264.452 246.138 264.758 246.546 265.166C246.954 265.562 247.158 266.102 247.158 266.786ZM256.109 266.786C256.109 267.554 255.827 268.154 255.263 268.586C254.699 269.018 253.883 269.234 252.815 269.234C252.359 269.234 251.939 269.192 251.555 269.108C251.171 269.036 250.841 268.94 250.565 268.82C250.301 268.688 250.091 268.544 249.935 268.388C249.791 268.22 249.719 268.052 249.719 267.884C249.719 267.74 249.755 267.602 249.827 267.47C249.911 267.338 250.031 267.224 250.187 267.128C250.511 267.368 250.889 267.584 251.321 267.776C251.753 267.956 252.245 268.046 252.797 268.046C254.045 268.046 254.669 267.626 254.669 266.786C254.669 266.102 254.255 265.658 253.427 265.454L251.933 265.058C251.201 264.866 250.667 264.59 250.331 264.23C249.995 263.858 249.827 263.384 249.827 262.808C249.827 262.496 249.887 262.196 250.007 261.908C250.139 261.62 250.337 261.368 250.601 261.152C250.865 260.936 251.189 260.768 251.573 260.648C251.969 260.516 252.431 260.45 252.959 260.45C253.799 260.45 254.477 260.576 254.993 260.828C255.509 261.068 255.767 261.35 255.767 261.674C255.767 261.83 255.725 261.968 255.641 262.088C255.569 262.208 255.467 262.298 255.335 262.358C255.119 262.214 254.813 262.058 254.417 261.89C254.021 261.722 253.553 261.638 253.013 261.638C252.473 261.638 252.041 261.74 251.717 261.944C251.405 262.148 251.249 262.436 251.249 262.808C251.249 263.084 251.339 263.318 251.519 263.51C251.699 263.702 251.999 263.846 252.419 263.942L253.661 264.248C254.477 264.452 255.089 264.758 255.497 265.166C255.905 265.562 256.109 266.102 256.109 266.786ZM267.002 264.842C267.002 265.514 266.906 266.12 266.714 266.66C266.522 267.2 266.246 267.662 265.886 268.046C265.538 268.43 265.112 268.724 264.608 268.928C264.104 269.132 263.54 269.234 262.916 269.234C262.292 269.234 261.728 269.132 261.224 268.928C260.72 268.724 260.288 268.43 259.928 268.046C259.568 267.662 259.292 267.2 259.1 266.66C258.908 266.12 258.812 265.514 258.812 264.842C258.812 264.17 258.908 263.564 259.1 263.024C259.304 262.484 259.586 262.022 259.946 261.638C260.306 261.254 260.738 260.96 261.242 260.756C261.746 260.552 262.304 260.45 262.916 260.45C263.528 260.45 264.086 260.552 264.59 260.756C265.094 260.96 265.52 261.254 265.868 261.638C266.228 262.022 266.504 262.484 266.696 263.024C266.9 263.564 267.002 264.17 267.002 264.842ZM262.916 261.638C262.1 261.638 261.458 261.92 260.99 262.484C260.522 263.048 260.288 263.834 260.288 264.842C260.288 265.862 260.516 266.654 260.972 267.218C261.44 267.77 262.088 268.046 262.916 268.046C263.744 268.046 264.386 267.764 264.842 267.2C265.298 266.636 265.526 265.85 265.526 264.842C265.526 263.834 265.292 263.048 264.824 262.484C264.368 261.92 263.732 261.638 262.916 261.638Z" fill="#FC9685"/>
<circle cx="133" cy="472" r="49" stroke="white" stroke-width="2"/>
<circle cx="133" cy="472" r="40" fill="white"/>
<path d="M130.367 461.528C130.367 460.724 130.289 460.04 130.133 459.476C129.989 458.912 129.791 458.45 129.539 458.09C129.287 457.73 128.987 457.472 128.639 457.316C128.303 457.148 127.943 457.064 127.559 457.064C127.175 457.064 126.815 457.154 126.479 457.334C126.143 457.502 125.849 457.766 125.597 458.126C125.345 458.486 125.141 458.948 124.985 459.512C124.841 460.076 124.769 460.748 124.769 461.528C124.769 462.98 125.009 464.09 125.489 464.858C125.981 465.626 126.671 466.01 127.559 466.01C128.459 466.01 129.149 465.626 129.629 464.858C130.121 464.09 130.367 462.98 130.367 461.528ZM127.559 467.234C126.923 467.234 126.341 467.12 125.813 466.892C125.297 466.652 124.847 466.298 124.463 465.83C124.091 465.35 123.803 464.756 123.599 464.048C123.395 463.328 123.293 462.488 123.293 461.528C123.293 460.496 123.413 459.62 123.653 458.9C123.893 458.18 124.211 457.592 124.607 457.136C125.003 456.68 125.453 456.35 125.957 456.146C126.473 455.942 127.007 455.84 127.559 455.84C128.111 455.84 128.645 455.948 129.161 456.164C129.677 456.368 130.133 456.698 130.529 457.154C130.925 457.61 131.243 458.198 131.483 458.918C131.723 459.638 131.843 460.508 131.843 461.528C131.843 462.488 131.741 463.328 131.537 464.048C131.333 464.756 131.039 465.35 130.655 465.83C130.283 466.298 129.833 466.652 129.305 466.892C128.777 467.12 128.195 467.234 127.559 467.234ZM137.48 455.822C138.044 455.822 138.56 455.888 139.028 456.02C139.496 456.14 139.898 456.326 140.234 456.578C140.57 456.83 140.828 457.142 141.008 457.514C141.2 457.886 141.296 458.318 141.296 458.81C141.296 459.17 141.236 459.494 141.116 459.782C140.996 460.058 140.846 460.298 140.666 460.502C140.498 460.706 140.312 460.868 140.108 460.988C139.904 461.108 139.724 461.186 139.568 461.222C139.808 461.294 140.048 461.408 140.288 461.564C140.528 461.708 140.744 461.894 140.936 462.122C141.14 462.338 141.302 462.602 141.422 462.914C141.554 463.214 141.62 463.556 141.62 463.94C141.62 464.48 141.518 464.954 141.314 465.362C141.122 465.77 140.846 466.112 140.486 466.388C140.126 466.652 139.694 466.856 139.19 467C138.686 467.132 138.134 467.198 137.534 467.198C137.042 467.198 136.586 467.156 136.166 467.072C135.758 467 135.404 466.898 135.104 466.766C134.804 466.622 134.57 466.466 134.402 466.298C134.234 466.13 134.15 465.956 134.15 465.776C134.15 465.608 134.192 465.464 134.276 465.344C134.372 465.224 134.492 465.122 134.636 465.038C134.948 465.278 135.326 465.494 135.77 465.686C136.226 465.878 136.814 465.974 137.534 465.974C138.326 465.974 138.968 465.806 139.46 465.47C139.952 465.122 140.198 464.6 140.198 463.904C140.198 463.292 139.97 462.8 139.514 462.428C139.058 462.056 138.398 461.87 137.534 461.87H136.04C135.992 461.81 135.95 461.726 135.914 461.618C135.878 461.498 135.86 461.378 135.86 461.258C135.86 461.126 135.878 461.006 135.914 460.898C135.95 460.79 135.992 460.706 136.04 460.646H137.408C138.296 460.646 138.926 460.484 139.298 460.16C139.682 459.824 139.874 459.386 139.874 458.846C139.874 458.258 139.658 457.814 139.226 457.514C138.806 457.202 138.218 457.046 137.462 457.046C136.886 457.046 136.376 457.136 135.932 457.316C135.5 457.484 135.14 457.67 134.852 457.874C134.732 457.814 134.624 457.724 134.528 457.604C134.432 457.472 134.384 457.322 134.384 457.154C134.384 456.998 134.462 456.842 134.618 456.686C134.774 456.518 134.99 456.374 135.266 456.254C135.554 456.122 135.884 456.02 136.256 455.948C136.64 455.864 137.048 455.822 137.48 455.822ZM111.199 483.094V486.964C111.127 486.988 111.031 487.012 110.911 487.036C110.791 487.072 110.659 487.09 110.515 487.09C109.987 487.09 109.723 486.868 109.723 486.424V476.848C109.723 476.656 109.771 476.512 109.867 476.416C109.963 476.308 110.113 476.224 110.317 476.164C110.665 476.056 111.085 475.978 111.577 475.93C112.081 475.882 112.567 475.858 113.035 475.858C114.559 475.858 115.669 476.182 116.365 476.83C117.073 477.466 117.427 478.33 117.427 479.422C117.427 480.538 117.067 481.432 116.347 482.104C115.627 482.764 114.517 483.094 113.017 483.094H111.199ZM112.927 481.87C113.887 481.87 114.631 481.672 115.159 481.276C115.687 480.88 115.951 480.268 115.951 479.44C115.951 478.624 115.693 478.03 115.177 477.658C114.673 477.274 113.947 477.082 112.999 477.082C112.675 477.082 112.351 477.1 112.027 477.136C111.715 477.16 111.433 477.196 111.181 477.244V481.87H112.927ZM123.378 486.064C123.882 486.064 124.296 486.016 124.62 485.92C124.956 485.812 125.196 485.71 125.34 485.614V483.004L123.108 483.238C122.484 483.298 122.022 483.442 121.722 483.67C121.422 483.886 121.272 484.21 121.272 484.642C121.272 485.098 121.446 485.452 121.794 485.704C122.142 485.944 122.67 486.064 123.378 486.064ZM123.36 478.45C124.404 478.45 125.232 478.684 125.844 479.152C126.456 479.62 126.762 480.358 126.762 481.366V485.632C126.762 485.896 126.708 486.1 126.6 486.244C126.504 486.376 126.354 486.502 126.15 486.622C125.862 486.79 125.478 486.934 124.998 487.054C124.53 487.186 123.99 487.252 123.378 487.252C122.25 487.252 121.374 487.03 120.75 486.586C120.138 486.142 119.832 485.5 119.832 484.66C119.832 483.868 120.09 483.274 120.606 482.878C121.122 482.47 121.848 482.218 122.784 482.122L125.34 481.87V481.366C125.34 480.766 125.16 480.328 124.8 480.052C124.44 479.776 123.954 479.638 123.342 479.638C122.838 479.638 122.364 479.71 121.92 479.854C121.476 479.998 121.08 480.16 120.732 480.34C120.636 480.256 120.546 480.16 120.462 480.052C120.39 479.944 120.354 479.824 120.354 479.692C120.354 479.524 120.396 479.386 120.48 479.278C120.564 479.17 120.696 479.068 120.876 478.972C121.2 478.804 121.572 478.678 121.992 478.594C122.412 478.498 122.868 478.45 123.36 478.45ZM136.158 484.786C136.158 485.554 135.876 486.154 135.312 486.586C134.748 487.018 133.932 487.234 132.864 487.234C132.408 487.234 131.988 487.192 131.604 487.108C131.22 487.036 130.89 486.94 130.614 486.82C130.35 486.688 130.14 486.544 129.984 486.388C129.84 486.22 129.768 486.052 129.768 485.884C129.768 485.74 129.804 485.602 129.876 485.47C129.96 485.338 130.08 485.224 130.236 485.128C130.56 485.368 130.938 485.584 131.37 485.776C131.802 485.956 132.294 486.046 132.846 486.046C134.094 486.046 134.718 485.626 134.718 484.786C134.718 484.102 134.304 483.658 133.476 483.454L131.982 483.058C131.25 482.866 130.716 482.59 130.38 482.23C130.044 481.858 129.876 481.384 129.876 480.808C129.876 480.496 129.936 480.196 130.056 479.908C130.188 479.62 130.386 479.368 130.65 479.152C130.914 478.936 131.238 478.768 131.622 478.648C132.018 478.516 132.48 478.45 133.008 478.45C133.848 478.45 134.526 478.576 135.042 478.828C135.558 479.068 135.816 479.35 135.816 479.674C135.816 479.83 135.774 479.968 135.69 480.088C135.618 480.208 135.516 480.298 135.384 480.358C135.168 480.214 134.862 480.058 134.466 479.89C134.07 479.722 133.602 479.638 133.062 479.638C132.522 479.638 132.09 479.74 131.766 479.944C131.454 480.148 131.298 480.436 131.298 480.808C131.298 481.084 131.388 481.318 131.568 481.51C131.748 481.702 132.048 481.846 132.468 481.942L133.71 482.248C134.526 482.452 135.138 482.758 135.546 483.166C135.954 483.562 136.158 484.102 136.158 484.786ZM145.109 484.786C145.109 485.554 144.827 486.154 144.263 486.586C143.699 487.018 142.883 487.234 141.815 487.234C141.359 487.234 140.939 487.192 140.555 487.108C140.171 487.036 139.841 486.94 139.565 486.82C139.301 486.688 139.091 486.544 138.935 486.388C138.791 486.22 138.719 486.052 138.719 485.884C138.719 485.74 138.755 485.602 138.827 485.47C138.911 485.338 139.031 485.224 139.187 485.128C139.511 485.368 139.889 485.584 140.321 485.776C140.753 485.956 141.245 486.046 141.797 486.046C143.045 486.046 143.669 485.626 143.669 484.786C143.669 484.102 143.255 483.658 142.427 483.454L140.933 483.058C140.201 482.866 139.667 482.59 139.331 482.23C138.995 481.858 138.827 481.384 138.827 480.808C138.827 480.496 138.887 480.196 139.007 479.908C139.139 479.62 139.337 479.368 139.601 479.152C139.865 478.936 140.189 478.768 140.573 478.648C140.969 478.516 141.431 478.45 141.959 478.45C142.799 478.45 143.477 478.576 143.993 478.828C144.509 479.068 144.767 479.35 144.767 479.674C144.767 479.83 144.725 479.968 144.641 480.088C144.569 480.208 144.467 480.298 144.335 480.358C144.119 480.214 143.813 480.058 143.417 479.89C143.021 479.722 142.553 479.638 142.013 479.638C141.473 479.638 141.041 479.74 140.717 479.944C140.405 480.148 140.249 480.436 140.249 480.808C140.249 481.084 140.339 481.318 140.519 481.51C140.699 481.702 140.999 481.846 141.419 481.942L142.661 482.248C143.477 482.452 144.089 482.758 144.497 483.166C144.905 483.562 145.109 484.102 145.109 484.786ZM156.002 482.842C156.002 483.514 155.906 484.12 155.714 484.66C155.522 485.2 155.246 485.662 154.886 486.046C154.538 486.43 154.112 486.724 153.608 486.928C153.104 487.132 152.54 487.234 151.916 487.234C151.292 487.234 150.728 487.132 150.224 486.928C149.72 486.724 149.288 486.43 148.928 486.046C148.568 485.662 148.292 485.2 148.1 484.66C147.908 484.12 147.812 483.514 147.812 482.842C147.812 482.17 147.908 481.564 148.1 481.024C148.304 480.484 148.586 480.022 148.946 479.638C149.306 479.254 149.738 478.96 150.242 478.756C150.746 478.552 151.304 478.45 151.916 478.45C152.528 478.45 153.086 478.552 153.59 478.756C154.094 478.96 154.52 479.254 154.868 479.638C155.228 480.022 155.504 480.484 155.696 481.024C155.9 481.564 156.002 482.17 156.002 482.842ZM151.916 479.638C151.1 479.638 150.458 479.92 149.99 480.484C149.522 481.048 149.288 481.834 149.288 482.842C149.288 483.862 149.516 484.654 149.972 485.218C150.44 485.77 151.088 486.046 151.916 486.046C152.744 486.046 153.386 485.764 153.842 485.2C154.298 484.636 154.526 483.85 154.526 482.842C154.526 481.834 154.292 481.048 153.824 480.484C153.368 479.92 152.732 479.638 151.916 479.638Z" fill="#FC9685"/>
<path d="M180.051 249.96C180.522 249.671 180.669 249.055 180.381 248.585L175.675 240.913C175.386 240.442 174.771 240.294 174.3 240.583C173.829 240.872 173.681 241.488 173.97 241.958L178.153 248.778L171.334 252.961C170.863 253.249 170.715 253.865 171.004 254.336C171.293 254.807 171.908 254.954 172.379 254.665L180.051 249.96ZM94.5008 67.2676C67.5356 92.3338 48.3802 113.657 37.5791 132.21C26.7698 150.778 24.236 166.743 30.8472 180.932C37.4209 195.04 52.9187 207.11 77.4515 218.239C102.016 229.382 135.825 239.662 179.295 250.08L179.761 248.135C136.326 237.726 102.666 227.48 78.2777 216.417C53.8581 205.34 38.921 193.524 32.6601 180.087C26.4366 166.731 28.6683 151.492 39.3075 133.217C49.9549 114.927 68.9308 93.7674 95.8625 68.7324L94.5008 67.2676Z" fill="#FC9685"/>
<path d="M191.117 446.285C190.858 446.772 191.042 447.378 191.53 447.637L199.473 451.87C199.96 452.129 200.566 451.945 200.825 451.457C201.085 450.97 200.9 450.364 200.413 450.104L193.353 446.343L197.115 439.282C197.374 438.795 197.19 438.189 196.702 437.929C196.215 437.67 195.609 437.854 195.35 438.342L191.117 446.285ZM291.692 293.684C311.162 314.448 322.947 331.752 327.665 346.635C332.357 361.435 330.069 373.851 321.291 385.028C312.453 396.282 296.988 406.336 275.192 416.162C253.417 425.979 225.444 435.516 191.708 445.798L192.292 447.711C226.044 437.424 254.118 427.857 276.014 417.985C297.889 408.124 313.719 397.907 322.864 386.263C332.07 374.541 334.454 361.431 329.572 346.031C324.716 330.714 312.682 313.145 293.151 292.316L291.692 293.684Z" fill="#FC9685"/>
</svg>
