<svg width="50" height="45" viewBox="0 0 50 45" fill="none" xmlns="http://www.w3.org/2000/svg">
<path d="M31.25 28.125H34.375V42.1875H31.25V28.125Z" fill="#1A5163"/>
<path d="M6.25 32.3438H9.375V42.1875H6.25V32.3438Z" fill="#1A5163"/>
<path d="M25 42.1875H21.875V36.5625C21.8746 36.1897 21.7098 35.8322 21.4169 35.5685C21.124 35.3049 20.7268 35.1566 20.3125 35.1562H17.1875V42.1875H14.0625V32.3438H20.3125C21.5553 32.3449 22.7469 32.7897 23.6257 33.5806C24.5045 34.3716 24.9988 35.444 25 36.5625V42.1875Z" fill="#1A5163"/>
<path d="M11.7188 30.9375C10.2689 30.936 8.87882 30.417 7.85359 29.4943C6.82836 28.5716 6.25165 27.3205 6.25 26.0156V23.9062H3.125V21.0938H9.375V26.0156C9.375 26.5751 9.62193 27.1116 10.0615 27.5072C10.501 27.9028 11.0971 28.125 11.7188 28.125C12.3404 28.125 12.9365 27.9028 13.376 27.5072C13.8156 27.1116 14.0625 26.5751 14.0625 26.0156V21.0938H20.3125V23.9062H17.1875V26.0156C17.1858 27.3205 16.6091 28.5716 15.5839 29.4943C14.5587 30.417 13.1686 30.936 11.7188 30.9375Z" fill="#1A5163"/>
<path d="M42.1876 14.0625H33.3657C32.428 14.0597 31.5111 14.3112 30.7346 14.7843C29.9581 15.2574 29.358 15.9301 29.0126 16.7147L26.7595 21.7842L21.1235 28.1264L23.5642 29.8842L29.3454 23.3789L31.9157 17.7595C32.0307 17.498 32.2305 17.2738 32.4891 17.116C32.7478 16.9582 33.0533 16.8742 33.3657 16.875H42.1876C42.602 16.875 42.9994 17.0232 43.2925 17.2869C43.5855 17.5506 43.7501 17.9083 43.7501 18.2812V28.125H39.0626V42.1875H42.1876V30.9375H43.7501C44.5786 30.9367 45.373 30.6402 45.9589 30.1129C46.5448 29.5856 46.8743 28.8707 46.8751 28.125V18.2812C46.8739 17.1627 46.3796 16.0903 45.5008 15.2994C44.622 14.5084 43.4304 14.0636 42.1876 14.0625Z" fill="#1A5163"/>
<path d="M37.5 12.6563C36.2639 12.6563 35.0555 12.3264 34.0277 11.7083C32.9999 11.0902 32.1988 10.2117 31.7258 9.18385C31.2527 8.15601 31.1289 7.02501 31.3701 5.93387C31.6113 4.84273 32.2065 3.84045 33.0806 3.05378C33.9547 2.26711 35.0683 1.73138 36.2807 1.51434C37.4931 1.29729 38.7497 1.40869 39.8918 1.83443C41.0338 2.26017 42.0099 2.98114 42.6967 3.90617C43.3834 4.8312 43.75 5.91873 43.75 7.03125C43.7479 8.52252 43.0888 9.95218 41.9171 11.0067C40.7455 12.0612 39.157 12.6544 37.5 12.6563ZM37.5 4.21875C36.8819 4.21875 36.2777 4.3837 35.7638 4.69274C35.2499 5.00179 34.8494 5.44104 34.6129 5.95496C34.3764 6.46887 34.3145 7.03437 34.435 7.57994C34.5556 8.12552 34.8533 8.62666 35.2903 9.01999C35.7273 9.41333 36.2842 9.68119 36.8903 9.78971C37.4965 9.89823 38.1249 9.84254 38.6959 9.62966C39.2669 9.41679 39.755 9.05631 40.0983 8.59379C40.4417 8.13128 40.625 7.58751 40.625 7.03125C40.6242 6.28556 40.2947 5.57062 39.7088 5.04334C39.1229 4.51605 38.3286 4.2195 37.5 4.21875Z" fill="#1A5163"/>
</svg>
