<svg width="32" height="36" viewBox="0 0 32 36" fill="none" xmlns="http://www.w3.org/2000/svg">
<path d="M22.5427 15.7505C22.5427 17.5406 21.8303 19.2575 20.5621 20.5233C19.2938 21.7891 17.5738 22.5003 15.7803 22.5003C13.9868 22.5003 12.2667 21.7891 10.9985 20.5233C9.73029 19.2575 9.01782 17.5406 9.01782 15.7505C9.01782 13.9603 9.73029 12.2435 10.9985 10.9777C12.2667 9.71182 13.9868 9.00069 15.7803 9.00069C17.5738 9.00069 19.2938 9.71182 20.5621 10.9777C21.8303 12.2435 22.5427 13.9603 22.5427 15.7505ZM20.2886 15.7505C20.2886 14.557 19.8136 13.4125 18.9681 12.5686C18.1227 11.7247 16.976 11.2506 15.7803 11.2506C14.5846 11.2506 13.4379 11.7247 12.5924 12.5686C11.747 13.4125 11.272 14.557 11.272 15.7505C11.272 16.9439 11.747 18.0885 12.5924 18.9324C13.4379 19.7762 14.5846 20.2503 15.7803 20.2503C16.976 20.2503 18.1227 19.7762 18.9681 18.9324C19.8136 18.0885 20.2886 16.9439 20.2886 15.7505Z" fill="#1A5163"/>
<path d="M26.9383 26.8989C29.8978 23.9434 31.5603 19.9358 31.5603 15.7572C31.5603 11.5785 29.8978 7.57091 26.9383 4.6154C25.4733 3.15221 23.7339 1.99148 21.8193 1.19954C19.9047 0.407612 17.8526 0 15.7802 0C13.7077 0 11.6556 0.407612 9.74099 1.19954C7.82643 1.99148 6.08697 3.15221 4.62202 4.6154C1.66251 7.57091 0 11.5785 0 15.7572C0 19.9358 1.66251 23.9434 4.62202 26.8989L8.05061 30.2716L12.6559 34.7378L12.9557 35.0033C14.7027 36.4162 17.2611 36.3262 18.9067 34.7378L24.3956 29.4054L26.9383 26.8989ZM6.21121 6.20162C7.46762 4.947 8.95937 3.95175 10.6012 3.27272C12.2431 2.5937 14.0029 2.2442 15.7802 2.2442C17.5574 2.2442 19.3172 2.5937 20.9591 3.27272C22.6009 3.95175 24.0927 4.947 25.3491 6.20162C27.8168 8.66633 29.2356 11.987 29.3095 15.4706C29.3834 18.9543 28.1067 22.3319 25.7458 24.8987L25.3491 25.3127L22.3713 28.2467L17.3445 33.1246L17.1327 33.3046C16.7429 33.5977 16.2682 33.7562 15.7802 33.7562C15.2921 33.7562 14.8174 33.5977 14.4276 33.3046L14.218 33.1246L7.50059 26.5884L6.21121 25.3127L5.81448 24.901C3.45357 22.3342 2.17688 18.9566 2.2508 15.4729C2.32472 11.9892 3.74354 8.66858 6.21121 6.20387V6.20162Z" fill="#1A5163"/>
</svg>
