<svg width="26" height="26" viewBox="0 0 26 26" fill="none" xmlns="http://www.w3.org/2000/svg">
<g filter="url(#filter0_d_995_422)">
<circle cx="13" cy="11" r="11" fill="#FC9685"/>
</g>
<path d="M17.928 15.4771C18.2562 15.8711 18.2032 16.4564 17.8092 16.7846C17.6426 16.9239 17.4324 17.0001 17.2152 17C16.9491 17 16.6851 16.8862 16.5017 16.6657L12.5713 11.9253L8.64232 16.6407C8.45869 16.8611 8.19486 16.975 7.92877 16.975C7.71164 16.9751 7.5014 16.8988 7.33478 16.7596C6.94072 16.4314 6.88761 15.8461 7.21598 15.4521L11.3626 10.4755L7.21528 5.52399C6.887 5.12992 6.94005 4.54463 7.3342 4.21644C7.72768 3.88738 8.31297 3.94031 8.64174 4.33524L12.5713 9.04965L16.5003 4.33426C16.8282 3.94019 17.4138 3.8868 17.8079 4.21546C18.2019 4.54365 18.255 5.12894 17.9267 5.523L13.78 10.4995L17.928 15.4771Z" fill="white"/>
<defs>
<filter id="filter0_d_995_422" x="0" y="0" width="26" height="26" filterUnits="userSpaceOnUse" color-interpolation-filters="sRGB">
<feFlood flood-opacity="0" result="BackgroundImageFix"/>
<feColorMatrix in="SourceAlpha" type="matrix" values="0 0 0 0 0 0 0 0 0 0 0 0 0 0 0 0 0 0 127 0" result="hardAlpha"/>
<feOffset dy="2"/>
<feGaussianBlur stdDeviation="1"/>
<feComposite in2="hardAlpha" operator="out"/>
<feColorMatrix type="matrix" values="0 0 0 0 0 0 0 0 0 0 0 0 0 0 0 0 0 0 0.1 0"/>
<feBlend mode="normal" in2="BackgroundImageFix" result="effect1_dropShadow_995_422"/>
<feBlend mode="normal" in="SourceGraphic" in2="effect1_dropShadow_995_422" result="shape"/>
</filter>
</defs>
</svg>
