<svg width="80" height="18" viewBox="0 0 80 18" fill="none" xmlns="http://www.w3.org/2000/svg">
<path d="M8.00001 0L9.79613 5.87952L15.6085 5.87952L10.9062 9.51326L12.7023 15.3928L8.00001 11.759L3.29772 15.3928L5.09384 9.51326L0.391549 5.87952L6.2039 5.87952L8.00001 0Z" fill="#FC9685"/>
<path d="M23.9999 0L25.796 5.87952L31.6084 5.87952L26.9061 9.51326L28.7022 15.3928L23.9999 11.759L19.2976 15.3928L21.0937 9.51326L16.3914 5.87952L22.2038 5.87952L23.9999 0Z" fill="#FC9685"/>
<path d="M39.9999 0L41.796 5.87952L47.6084 5.87952L42.9061 9.51326L44.7022 15.3928L39.9999 11.759L35.2976 15.3928L37.0937 9.51326L32.3914 5.87952L38.2038 5.87952L39.9999 0Z" fill="#FC9685"/>
<path d="M56 0L57.7961 5.87952L63.6085 5.87952L58.9062 9.51326L60.7023 15.3928L56 11.759L51.2977 15.3928L53.0938 9.51326L48.3915 5.87952L54.2039 5.87952L56 0Z" fill="#FC9685"/>
<path d="M72 0L73.7961 5.87952L79.6085 5.87952L74.9062 9.51326L76.7023 15.3928L72 11.759L67.2977 15.3928L69.0938 9.51326L64.3915 5.87952L70.2039 5.87952L72 0Z" fill="#FC9685"/>
</svg>
