<svg width="20" height="22" viewBox="0 0 20 22" fill="none" xmlns="http://www.w3.org/2000/svg">
<path d="M10.2007 2.33541V5.95997L10.2634 5.9573C10.6798 5.94129 11.2536 5.93595 11.666 6.01869C12.0397 6.09343 12.3907 6.25891 12.6509 6.40303C13.0152 6.60588 13.2594 6.91683 13.3982 7.2598L13.5744 7.24378C13.9907 7.21175 14.634 7.19307 15.1198 7.38791C15.6135 7.58542 16.0392 8.03782 16.2941 8.34343C16.3942 8.46354 16.4823 8.57697 16.5544 8.67439H17.3311C17.7039 8.6744 18.0727 8.75255 18.4135 8.9038C18.7544 9.05505 19.0597 9.27604 19.31 9.55252C19.5602 9.82901 19.7497 10.1549 19.8662 10.5091C19.9828 10.8633 20.0239 11.238 19.9868 11.609L19.6238 15.2322C19.5586 15.8849 19.3567 16.5165 19.0312 17.0859L17.1696 20.3434C16.9946 20.6498 16.7417 20.9045 16.4366 21.0817C16.1314 21.2589 15.7849 21.3522 15.432 21.3523H7.02188C6.64993 21.3523 6.28533 21.2487 5.969 21.053C5.65266 20.8574 5.39709 20.5775 5.23095 20.2447L3.60951 17.0018L0.285212 11.4622C0.0328811 11.0386 -0.0561923 10.5375 0.0347073 10.0529C0.125607 9.5683 0.39023 9.13353 0.778918 8.83018C1.16761 8.52683 1.65364 8.37576 2.1458 8.40531C2.63797 8.43485 3.10243 8.643 3.45203 8.99067L5.52988 11.0672V2.33541C5.52988 1.71602 5.77593 1.122 6.21391 0.684027C6.65188 0.246052 7.2459 0 7.86529 0C8.48468 0 9.07871 0.246052 9.51668 0.684027C9.95466 1.122 10.2007 1.71602 10.2007 2.33541V2.33541Z" fill="white"/>
</svg>
