<svg width="113" height="19" viewBox="0 0 113 19" fill="none" xmlns="http://www.w3.org/2000/svg">
<path d="M4.94822 7.57351C4.94822 6.23648 3.84021 5.15228 2.47386 5.15228C1.10752 5.15228 0 6.23648 0 7.57351C0 8.9115 1.10727 9.99522 2.47386 9.99522C3.84045 9.99522 4.94822 8.9115 4.94822 7.57351Z" fill="#FC9685"/>
<path d="M13.3736 1C12.0075 1 10.8998 2.08419 10.8998 3.42123C10.8998 4.75922 12.0075 5.84246 13.3736 5.84246C14.74 5.84246 15.8478 4.75922 15.8478 3.42123C15.8478 2.08419 14.7402 1 13.3736 1Z" fill="#FC9685"/>
<path d="M17.5259 5.15228C16.1598 5.15228 15.052 6.23647 15.052 7.57351C15.052 8.9115 16.1598 9.99474 17.5259 9.99474C18.8922 9.99474 20 8.9115 20 7.57351C20 6.23647 18.8925 5.15228 17.5259 5.15228Z" fill="#FC9685"/>
<path d="M14.0443 8.69725C13.8723 8.48977 13.6288 8.24958 13.3493 7.99769C12.6033 7.0515 11.4365 6.43933 10.1211 6.43933C8.95043 6.43933 7.89805 6.92448 7.15425 7.69758C6.73174 8.05738 6.35606 8.40859 6.11699 8.69749L5.95696 8.88873C5.21049 9.77953 4.28129 10.8878 4.28812 12.7685C4.29471 14.515 5.7479 15.9368 7.52725 15.9368C8.02104 15.9379 8.5084 15.8272 8.95131 15.6136C9.39423 15.3999 9.78072 15.089 10.0806 14.7051C10.3806 15.0891 10.7672 15.4002 11.2103 15.6138C11.6533 15.8275 12.1408 15.938 12.6348 15.9368C14.4134 15.9368 15.8663 14.5153 15.8732 12.7685C15.88 10.8878 14.9505 9.77953 14.2043 8.88873L14.0443 8.69725Z" fill="#FC9685"/>
<path d="M6.87845 6.3362C8.38403 6.3362 9.60455 5.14165 9.60455 3.6681C9.60455 2.19455 8.38403 1 6.87845 1C5.37286 1 4.15234 2.19455 4.15234 3.6681C4.15234 5.14165 5.37286 6.3362 6.87845 6.3362Z" fill="#FC9685"/>
<path d="M35.8297 10.9453H32.9313V9.11719H35.8297C36.2776 9.11719 36.6422 9.04427 36.9234 8.89844C37.2047 8.7474 37.4104 8.53906 37.5406 8.27344C37.6708 8.00781 37.7359 7.70833 37.7359 7.375C37.7359 7.03646 37.6708 6.72135 37.5406 6.42969C37.4104 6.13802 37.2047 5.90365 36.9234 5.72656C36.6422 5.54948 36.2776 5.46094 35.8297 5.46094H33.7438V15H31.4V3.625H35.8297C36.7203 3.625 37.4833 3.78646 38.1188 4.10938C38.7594 4.42708 39.249 4.86719 39.5875 5.42969C39.926 5.99219 40.0953 6.63542 40.0953 7.35938C40.0953 8.09375 39.926 8.72917 39.5875 9.26562C39.249 9.80208 38.7594 10.2161 38.1188 10.5078C37.4833 10.7995 36.7203 10.9453 35.8297 10.9453ZM46.9531 15.1562C46.2969 15.1562 45.7083 15.0521 45.1875 14.8438C44.6667 14.6302 44.224 14.3359 43.8594 13.9609C43.5 13.5859 43.224 13.151 43.0313 12.6562C42.8385 12.1562 42.7422 11.625 42.7422 11.0625V10.75C42.7422 10.1094 42.8333 9.52344 43.0156 8.99219C43.1979 8.46094 43.4583 8 43.7969 7.60938C44.1406 7.21875 44.5573 6.91927 45.0469 6.71094C45.5365 6.4974 46.0885 6.39062 46.7031 6.39062C47.3021 6.39062 47.8333 6.48958 48.2969 6.6875C48.7604 6.88542 49.1484 7.16667 49.4609 7.53125C49.7786 7.89583 50.0182 8.33333 50.1797 8.84375C50.3411 9.34896 50.4219 9.91146 50.4219 10.5312V11.4688H43.7031V9.96875H48.2109V9.79688C48.2109 9.48438 48.1536 9.20573 48.0391 8.96094C47.9297 8.71094 47.763 8.51302 47.5391 8.36719C47.3151 8.22135 47.0286 8.14844 46.6797 8.14844C46.3828 8.14844 46.1276 8.21354 45.9141 8.34375C45.7005 8.47396 45.526 8.65625 45.3906 8.89062C45.2604 9.125 45.1615 9.40104 45.0938 9.71875C45.0313 10.0312 45 10.375 45 10.75V11.0625C45 11.401 45.0469 11.7135 45.1406 12C45.2396 12.2865 45.3776 12.5339 45.5547 12.7422C45.737 12.9505 45.9557 13.112 46.2109 13.2266C46.4714 13.3411 46.7656 13.3984 47.0938 13.3984C47.5 13.3984 47.8776 13.3203 48.2266 13.1641C48.5807 13.0026 48.8854 12.7604 49.1406 12.4375L50.2344 13.625C50.0573 13.8802 49.8151 14.125 49.5078 14.3594C49.2057 14.5938 48.8411 14.7865 48.4141 14.9375C47.987 15.0833 47.5 15.1562 46.9531 15.1562ZM57.4438 6.54688V8.14062H52.5219V6.54688H57.4438ZM53.7406 4.46094H55.9906V12.4531C55.9906 12.6979 56.0219 12.8854 56.0844 13.0156C56.1521 13.1458 56.251 13.237 56.3813 13.2891C56.5115 13.3359 56.6755 13.3594 56.8734 13.3594C57.0141 13.3594 57.1391 13.3542 57.2484 13.3438C57.363 13.3281 57.4594 13.3125 57.5375 13.2969L57.5453 14.9531C57.3526 15.0156 57.1443 15.0651 56.9203 15.1016C56.6964 15.138 56.449 15.1562 56.1781 15.1562C55.6833 15.1562 55.251 15.0755 54.8813 14.9141C54.5167 14.7474 54.2354 14.4818 54.0375 14.1172C53.8396 13.7526 53.7406 13.2734 53.7406 12.6797V4.46094ZM65.0906 5.57031L61.9969 15H59.5047L63.7313 3.625H65.3172L65.0906 5.57031ZM67.6609 15L64.5594 5.57031L64.3094 3.625H65.9109L70.1609 15H67.6609ZM67.5203 10.7656V12.6016H61.5125V10.7656H67.5203ZM74.675 8.29688V15H72.4172V6.54688H74.5344L74.675 8.29688ZM74.3625 10.4766H73.7375C73.7375 9.88802 73.8078 9.34635 73.9484 8.85156C74.0943 8.35156 74.3052 7.91927 74.5813 7.55469C74.8625 7.1849 75.2089 6.89844 75.6203 6.69531C76.0318 6.49219 76.5083 6.39062 77.05 6.39062C77.425 6.39062 77.7688 6.44792 78.0813 6.5625C78.3938 6.67188 78.662 6.84635 78.8859 7.08594C79.1151 7.32031 79.2922 7.6276 79.4172 8.00781C79.5422 8.38281 79.6047 8.83333 79.6047 9.35938V15H77.3547V9.60938C77.3547 9.22396 77.3026 8.92708 77.1984 8.71875C77.0943 8.51042 76.9458 8.36458 76.7531 8.28125C76.5656 8.19792 76.3391 8.15625 76.0734 8.15625C75.7818 8.15625 75.5266 8.21615 75.3078 8.33594C75.0943 8.45573 74.9172 8.6224 74.7766 8.83594C74.6359 9.04427 74.5318 9.28906 74.4641 9.57031C74.3964 9.85156 74.3625 10.1536 74.3625 10.4766ZM79.3938 10.2188L78.5891 10.3203C78.5891 9.76823 78.6568 9.25521 78.7922 8.78125C78.9328 8.30729 79.1385 7.89062 79.4094 7.53125C79.6854 7.17188 80.0266 6.89323 80.4328 6.69531C80.8391 6.49219 81.3078 6.39062 81.8391 6.39062C82.2453 6.39062 82.6151 6.45052 82.9484 6.57031C83.2818 6.6849 83.5656 6.86979 83.8 7.125C84.0396 7.375 84.2219 7.70312 84.3469 8.10938C84.4771 8.51562 84.5422 9.01302 84.5422 9.60156V15H82.2844V9.60156C82.2844 9.21094 82.2323 8.91406 82.1281 8.71094C82.0292 8.5026 81.8833 8.35938 81.6906 8.28125C81.5031 8.19792 81.2792 8.15625 81.0188 8.15625C80.7479 8.15625 80.5109 8.21094 80.3078 8.32031C80.1047 8.42448 79.9354 8.57031 79.8 8.75781C79.6646 8.94531 79.563 9.16406 79.4953 9.41406C79.4276 9.65885 79.3938 9.92708 79.3938 10.2188ZM90.2594 6.54688V15H88.0016V6.54688H90.2594ZM87.8609 4.34375C87.8609 4.01562 87.9755 3.74479 88.2047 3.53125C88.4339 3.31771 88.7411 3.21094 89.1266 3.21094C89.5068 3.21094 89.8115 3.31771 90.0406 3.53125C90.275 3.74479 90.3922 4.01562 90.3922 4.34375C90.3922 4.67188 90.275 4.94271 90.0406 5.15625C89.8115 5.36979 89.5068 5.47656 89.1266 5.47656C88.7411 5.47656 88.4339 5.36979 88.2047 5.15625C87.9755 4.94271 87.8609 4.67188 87.8609 4.34375ZM99.0703 6.54688H101.109V14.7188C101.109 15.4896 100.938 16.1432 100.594 16.6797C100.255 17.2214 99.7812 17.6302 99.1719 17.9062C98.5625 18.1875 97.8542 18.3281 97.0469 18.3281C96.6927 18.3281 96.3177 18.2812 95.9219 18.1875C95.5312 18.0938 95.1562 17.9479 94.7969 17.75C94.4427 17.5521 94.1458 17.3021 93.9062 17L94.8984 15.6719C95.1589 15.974 95.4609 16.2083 95.8047 16.375C96.1484 16.5469 96.5286 16.6328 96.9453 16.6328C97.3516 16.6328 97.6953 16.5573 97.9766 16.4062C98.2578 16.2604 98.474 16.0443 98.625 15.7578C98.776 15.4766 98.8516 15.1354 98.8516 14.7344V8.5L99.0703 6.54688ZM93.3828 10.875V10.7109C93.3828 10.0651 93.4609 9.47917 93.6172 8.95312C93.7786 8.42188 94.0052 7.96615 94.2969 7.58594C94.5938 7.20573 94.9531 6.91146 95.375 6.70312C95.7969 6.49479 96.2734 6.39062 96.8047 6.39062C97.3672 6.39062 97.8385 6.49479 98.2188 6.70312C98.599 6.91146 98.9115 7.20833 99.1562 7.59375C99.401 7.97396 99.5911 8.42448 99.7266 8.94531C99.8672 9.46094 99.9766 10.026 100.055 10.6406V11C99.9766 11.5885 99.8594 12.1354 99.7031 12.6406C99.5469 13.1458 99.3411 13.5885 99.0859 13.9688C98.8307 14.3438 98.513 14.6354 98.1328 14.8438C97.7578 15.0521 97.3099 15.1562 96.7891 15.1562C96.2682 15.1562 95.7969 15.0495 95.375 14.8359C94.9583 14.6224 94.6016 14.3229 94.3047 13.9375C94.0078 13.5521 93.7786 13.099 93.6172 12.5781C93.4609 12.0573 93.3828 11.4896 93.3828 10.875ZM95.6328 10.7109V10.875C95.6328 11.224 95.6667 11.5495 95.7344 11.8516C95.8021 12.1536 95.9062 12.4219 96.0469 12.6562C96.1927 12.8854 96.3724 13.0651 96.5859 13.1953C96.8047 13.3203 97.0625 13.3828 97.3594 13.3828C97.7708 13.3828 98.1068 13.2969 98.3672 13.125C98.6276 12.9479 98.8229 12.7057 98.9531 12.3984C99.0833 12.0911 99.1589 11.737 99.1797 11.3359V10.3125C99.1693 9.98438 99.125 9.6901 99.0469 9.42969C98.9688 9.16406 98.8594 8.9375 98.7188 8.75C98.5781 8.5625 98.3958 8.41667 98.1719 8.3125C97.9479 8.20833 97.6823 8.15625 97.375 8.15625C97.0781 8.15625 96.8203 8.22396 96.6016 8.35938C96.388 8.48958 96.2083 8.66927 96.0625 8.89844C95.9219 9.1276 95.8151 9.39844 95.7422 9.71094C95.6693 10.0182 95.6328 10.3516 95.6328 10.7109ZM104.1 10.8594V10.6953C104.1 10.0755 104.189 9.50521 104.366 8.98438C104.543 8.45833 104.801 8.0026 105.139 7.61719C105.478 7.23177 105.894 6.93229 106.389 6.71875C106.884 6.5 107.452 6.39062 108.092 6.39062C108.733 6.39062 109.303 6.5 109.803 6.71875C110.303 6.93229 110.722 7.23177 111.061 7.61719C111.405 8.0026 111.665 8.45833 111.842 8.98438C112.019 9.50521 112.108 10.0755 112.108 10.6953V10.8594C112.108 11.474 112.019 12.0443 111.842 12.5703C111.665 13.0911 111.405 13.5469 111.061 13.9375C110.722 14.3229 110.306 14.6224 109.811 14.8359C109.316 15.0495 108.748 15.1562 108.108 15.1562C107.467 15.1562 106.897 15.0495 106.397 14.8359C105.902 14.6224 105.483 14.3229 105.139 13.9375C104.801 13.5469 104.543 13.0911 104.366 12.5703C104.189 12.0443 104.1 11.474 104.1 10.8594ZM106.35 10.6953V10.8594C106.35 11.2135 106.381 11.5443 106.444 11.8516C106.506 12.1589 106.605 12.4297 106.741 12.6641C106.881 12.8932 107.064 13.0729 107.287 13.2031C107.511 13.3333 107.785 13.3984 108.108 13.3984C108.42 13.3984 108.689 13.3333 108.912 13.2031C109.136 13.0729 109.316 12.8932 109.452 12.6641C109.587 12.4297 109.686 12.1589 109.748 11.8516C109.816 11.5443 109.85 11.2135 109.85 10.8594V10.6953C109.85 10.3516 109.816 10.0286 109.748 9.72656C109.686 9.41927 109.584 9.14844 109.444 8.91406C109.308 8.67448 109.129 8.48698 108.905 8.35156C108.681 8.21615 108.41 8.14844 108.092 8.14844C107.774 8.14844 107.504 8.21615 107.28 8.35156C107.061 8.48698 106.881 8.67448 106.741 8.91406C106.605 9.14844 106.506 9.41927 106.444 9.72656C106.381 10.0286 106.35 10.3516 106.35 10.6953Z" fill="white"/>
</svg>
