<svg width="111" height="20" viewBox="0 0 111 20" fill="none" xmlns="http://www.w3.org/2000/svg">
<path d="M33.8297 10.9453H30.9313V9.11719H33.8297C34.2776 9.11719 34.6422 9.04427 34.9234 8.89844C35.2047 8.7474 35.4104 8.53906 35.5406 8.27344C35.6708 8.00781 35.7359 7.70833 35.7359 7.375C35.7359 7.03646 35.6708 6.72135 35.5406 6.42969C35.4104 6.13802 35.2047 5.90365 34.9234 5.72656C34.6422 5.54948 34.2776 5.46094 33.8297 5.46094H31.7438V15H29.4V3.625H33.8297C34.7203 3.625 35.4833 3.78646 36.1188 4.10938C36.7594 4.42708 37.249 4.86719 37.5875 5.42969C37.926 5.99219 38.0953 6.63542 38.0953 7.35938C38.0953 8.09375 37.926 8.72917 37.5875 9.26562C37.249 9.80208 36.7594 10.2161 36.1188 10.5078C35.4833 10.7995 34.7203 10.9453 33.8297 10.9453ZM44.9531 15.1562C44.2969 15.1562 43.7083 15.0521 43.1875 14.8438C42.6667 14.6302 42.224 14.3359 41.8594 13.9609C41.5 13.5859 41.224 13.151 41.0313 12.6562C40.8385 12.1562 40.7422 11.625 40.7422 11.0625V10.75C40.7422 10.1094 40.8333 9.52344 41.0156 8.99219C41.1979 8.46094 41.4583 8 41.7969 7.60938C42.1406 7.21875 42.5573 6.91927 43.0469 6.71094C43.5365 6.4974 44.0885 6.39062 44.7031 6.39062C45.3021 6.39062 45.8333 6.48958 46.2969 6.6875C46.7604 6.88542 47.1484 7.16667 47.4609 7.53125C47.7786 7.89583 48.0182 8.33333 48.1797 8.84375C48.3411 9.34896 48.4219 9.91146 48.4219 10.5312V11.4688H41.7031V9.96875H46.2109V9.79688C46.2109 9.48438 46.1536 9.20573 46.0391 8.96094C45.9297 8.71094 45.763 8.51302 45.5391 8.36719C45.3151 8.22135 45.0286 8.14844 44.6797 8.14844C44.3828 8.14844 44.1276 8.21354 43.9141 8.34375C43.7005 8.47396 43.526 8.65625 43.3906 8.89062C43.2604 9.125 43.1615 9.40104 43.0938 9.71875C43.0313 10.0312 43 10.375 43 10.75V11.0625C43 11.401 43.0469 11.7135 43.1406 12C43.2396 12.2865 43.3776 12.5339 43.5547 12.7422C43.737 12.9505 43.9557 13.112 44.2109 13.2266C44.4714 13.3411 44.7656 13.3984 45.0938 13.3984C45.5 13.3984 45.8776 13.3203 46.2266 13.1641C46.5807 13.0026 46.8854 12.7604 47.1406 12.4375L48.2344 13.625C48.0573 13.8802 47.8151 14.125 47.5078 14.3594C47.2057 14.5938 46.8411 14.7865 46.4141 14.9375C45.987 15.0833 45.5 15.1562 44.9531 15.1562ZM55.4438 6.54688V8.14062H50.5219V6.54688H55.4438ZM51.7406 4.46094H53.9906V12.4531C53.9906 12.6979 54.0219 12.8854 54.0844 13.0156C54.1521 13.1458 54.251 13.237 54.3813 13.2891C54.5115 13.3359 54.6755 13.3594 54.8734 13.3594C55.0141 13.3594 55.1391 13.3542 55.2484 13.3438C55.363 13.3281 55.4594 13.3125 55.5375 13.2969L55.5453 14.9531C55.3526 15.0156 55.1443 15.0651 54.9203 15.1016C54.6964 15.138 54.449 15.1562 54.1781 15.1562C53.6833 15.1562 53.251 15.0755 52.8813 14.9141C52.5167 14.7474 52.2354 14.4818 52.0375 14.1172C51.8396 13.7526 51.7406 13.2734 51.7406 12.6797V4.46094ZM63.0906 5.57031L59.9969 15H57.5047L61.7313 3.625H63.3172L63.0906 5.57031ZM65.6609 15L62.5594 5.57031L62.3094 3.625H63.9109L68.1609 15H65.6609ZM65.5203 10.7656V12.6016H59.5125V10.7656H65.5203ZM72.675 8.29688V15H70.4172V6.54688H72.5344L72.675 8.29688ZM72.3625 10.4766H71.7375C71.7375 9.88802 71.8078 9.34635 71.9484 8.85156C72.0943 8.35156 72.3052 7.91927 72.5813 7.55469C72.8625 7.1849 73.2089 6.89844 73.6203 6.69531C74.0318 6.49219 74.5083 6.39062 75.05 6.39062C75.425 6.39062 75.7688 6.44792 76.0813 6.5625C76.3938 6.67188 76.662 6.84635 76.8859 7.08594C77.1151 7.32031 77.2922 7.6276 77.4172 8.00781C77.5422 8.38281 77.6047 8.83333 77.6047 9.35938V15H75.3547V9.60938C75.3547 9.22396 75.3026 8.92708 75.1984 8.71875C75.0943 8.51042 74.9458 8.36458 74.7531 8.28125C74.5656 8.19792 74.3391 8.15625 74.0734 8.15625C73.7818 8.15625 73.5266 8.21615 73.3078 8.33594C73.0943 8.45573 72.9172 8.6224 72.7766 8.83594C72.6359 9.04427 72.5318 9.28906 72.4641 9.57031C72.3964 9.85156 72.3625 10.1536 72.3625 10.4766ZM77.3938 10.2188L76.5891 10.3203C76.5891 9.76823 76.6568 9.25521 76.7922 8.78125C76.9328 8.30729 77.1385 7.89062 77.4094 7.53125C77.6854 7.17188 78.0266 6.89323 78.4328 6.69531C78.8391 6.49219 79.3078 6.39062 79.8391 6.39062C80.2453 6.39062 80.6151 6.45052 80.9484 6.57031C81.2818 6.6849 81.5656 6.86979 81.8 7.125C82.0396 7.375 82.2219 7.70312 82.3469 8.10938C82.4771 8.51562 82.5422 9.01302 82.5422 9.60156V15H80.2844V9.60156C80.2844 9.21094 80.2323 8.91406 80.1281 8.71094C80.0292 8.5026 79.8833 8.35938 79.6906 8.28125C79.5031 8.19792 79.2792 8.15625 79.0188 8.15625C78.7479 8.15625 78.5109 8.21094 78.3078 8.32031C78.1047 8.42448 77.9354 8.57031 77.8 8.75781C77.6646 8.94531 77.563 9.16406 77.4953 9.41406C77.4276 9.65885 77.3938 9.92708 77.3938 10.2188ZM88.2594 6.54688V15H86.0016V6.54688H88.2594ZM85.8609 4.34375C85.8609 4.01562 85.9755 3.74479 86.2047 3.53125C86.4339 3.31771 86.7411 3.21094 87.1266 3.21094C87.5068 3.21094 87.8115 3.31771 88.0406 3.53125C88.275 3.74479 88.3922 4.01562 88.3922 4.34375C88.3922 4.67188 88.275 4.94271 88.0406 5.15625C87.8115 5.36979 87.5068 5.47656 87.1266 5.47656C86.7411 5.47656 86.4339 5.36979 86.2047 5.15625C85.9755 4.94271 85.8609 4.67188 85.8609 4.34375ZM97.0703 6.54688H99.1094V14.7188C99.1094 15.4896 98.9375 16.1432 98.5938 16.6797C98.2552 17.2214 97.7812 17.6302 97.1719 17.9062C96.5625 18.1875 95.8542 18.3281 95.0469 18.3281C94.6927 18.3281 94.3177 18.2812 93.9219 18.1875C93.5312 18.0938 93.1562 17.9479 92.7969 17.75C92.4427 17.5521 92.1458 17.3021 91.9062 17L92.8984 15.6719C93.1589 15.974 93.4609 16.2083 93.8047 16.375C94.1484 16.5469 94.5286 16.6328 94.9453 16.6328C95.3516 16.6328 95.6953 16.5573 95.9766 16.4062C96.2578 16.2604 96.474 16.0443 96.625 15.7578C96.776 15.4766 96.8516 15.1354 96.8516 14.7344V8.5L97.0703 6.54688ZM91.3828 10.875V10.7109C91.3828 10.0651 91.4609 9.47917 91.6172 8.95312C91.7786 8.42188 92.0052 7.96615 92.2969 7.58594C92.5938 7.20573 92.9531 6.91146 93.375 6.70312C93.7969 6.49479 94.2734 6.39062 94.8047 6.39062C95.3672 6.39062 95.8385 6.49479 96.2188 6.70312C96.599 6.91146 96.9115 7.20833 97.1562 7.59375C97.401 7.97396 97.5911 8.42448 97.7266 8.94531C97.8672 9.46094 97.9766 10.026 98.0547 10.6406V11C97.9766 11.5885 97.8594 12.1354 97.7031 12.6406C97.5469 13.1458 97.3411 13.5885 97.0859 13.9688C96.8307 14.3438 96.513 14.6354 96.1328 14.8438C95.7578 15.0521 95.3099 15.1562 94.7891 15.1562C94.2682 15.1562 93.7969 15.0495 93.375 14.8359C92.9583 14.6224 92.6016 14.3229 92.3047 13.9375C92.0078 13.5521 91.7786 13.099 91.6172 12.5781C91.4609 12.0573 91.3828 11.4896 91.3828 10.875ZM93.6328 10.7109V10.875C93.6328 11.224 93.6667 11.5495 93.7344 11.8516C93.8021 12.1536 93.9062 12.4219 94.0469 12.6562C94.1927 12.8854 94.3724 13.0651 94.5859 13.1953C94.8047 13.3203 95.0625 13.3828 95.3594 13.3828C95.7708 13.3828 96.1068 13.2969 96.3672 13.125C96.6276 12.9479 96.8229 12.7057 96.9531 12.3984C97.0833 12.0911 97.1589 11.737 97.1797 11.3359V10.3125C97.1693 9.98438 97.125 9.6901 97.0469 9.42969C96.9688 9.16406 96.8594 8.9375 96.7188 8.75C96.5781 8.5625 96.3958 8.41667 96.1719 8.3125C95.9479 8.20833 95.6823 8.15625 95.375 8.15625C95.0781 8.15625 94.8203 8.22396 94.6016 8.35938C94.388 8.48958 94.2083 8.66927 94.0625 8.89844C93.9219 9.1276 93.8151 9.39844 93.7422 9.71094C93.6693 10.0182 93.6328 10.3516 93.6328 10.7109ZM102.1 10.8594V10.6953C102.1 10.0755 102.189 9.50521 102.366 8.98438C102.543 8.45833 102.801 8.0026 103.139 7.61719C103.478 7.23177 103.894 6.93229 104.389 6.71875C104.884 6.5 105.452 6.39062 106.092 6.39062C106.733 6.39062 107.303 6.5 107.803 6.71875C108.303 6.93229 108.722 7.23177 109.061 7.61719C109.405 8.0026 109.665 8.45833 109.842 8.98438C110.019 9.50521 110.108 10.0755 110.108 10.6953V10.8594C110.108 11.474 110.019 12.0443 109.842 12.5703C109.665 13.0911 109.405 13.5469 109.061 13.9375C108.722 14.3229 108.306 14.6224 107.811 14.8359C107.316 15.0495 106.748 15.1562 106.108 15.1562C105.467 15.1562 104.897 15.0495 104.397 14.8359C103.902 14.6224 103.483 14.3229 103.139 13.9375C102.801 13.5469 102.543 13.0911 102.366 12.5703C102.189 12.0443 102.1 11.474 102.1 10.8594ZM104.35 10.6953V10.8594C104.35 11.2135 104.381 11.5443 104.444 11.8516C104.506 12.1589 104.605 12.4297 104.741 12.6641C104.881 12.8932 105.064 13.0729 105.287 13.2031C105.511 13.3333 105.785 13.3984 106.108 13.3984C106.42 13.3984 106.689 13.3333 106.912 13.2031C107.136 13.0729 107.316 12.8932 107.452 12.6641C107.587 12.4297 107.686 12.1589 107.748 11.8516C107.816 11.5443 107.85 11.2135 107.85 10.8594V10.6953C107.85 10.3516 107.816 10.0286 107.748 9.72656C107.686 9.41927 107.584 9.14844 107.444 8.91406C107.308 8.67448 107.129 8.48698 106.905 8.35156C106.681 8.21615 106.41 8.14844 106.092 8.14844C105.774 8.14844 105.504 8.21615 105.28 8.35156C105.061 8.48698 104.881 8.67448 104.741 8.91406C104.605 9.14844 104.506 9.41927 104.444 9.72656C104.381 10.0286 104.35 10.3516 104.35 10.6953Z" fill="#1A5163"/>
<path d="M2.21688 9.72284C0.0535382 6.94156 0.774652 2.76965 4.38022 1.37901C7.98579 -0.0116302 10.1491 2.76965 10.8702 4.16028C11.5914 2.76965 14.4758 -0.0116302 18.0814 1.37901C21.687 2.76965 21.687 6.94156 19.5236 9.72284C17.3603 12.5041 10.8702 18.0667 10.8702 18.0667C10.8702 18.0667 4.38022 12.5041 2.21688 9.72284Z" stroke="#FC9685" stroke-width="2" stroke-linecap="round" stroke-linejoin="round"/>
<path d="M8.07559 9.44391C8.07559 8.75698 7.50632 8.19995 6.80433 8.19995C6.10234 8.19995 5.53333 8.75698 5.53333 9.44391C5.53333 10.1313 6.10221 10.6881 6.80433 10.6881C7.50645 10.6881 8.07559 10.1313 8.07559 9.44391Z" fill="#FC9685"/>
<path d="M12.4043 6.06665C11.7024 6.06665 11.1333 6.62368 11.1333 7.31061C11.1333 7.99804 11.7024 8.55458 12.4043 8.55458C13.1063 8.55458 13.6754 7.99804 13.6754 7.31061C13.6754 6.62368 13.1064 6.06665 12.4043 6.06665Z" fill="#FC9685"/>
<path d="M14.5376 8.19995C13.8357 8.19995 13.2666 8.75698 13.2666 9.44391C13.2666 10.1313 13.8357 10.6879 14.5376 10.6879C15.2396 10.6879 15.8087 10.1313 15.8087 9.44391C15.8087 8.75698 15.2397 8.19995 14.5376 8.19995Z" fill="#FC9685"/>
<path d="M12.7489 10.0214C12.6606 9.91479 12.5355 9.79139 12.3919 9.66197C12.0086 9.17585 11.4091 8.86133 10.7333 8.86133C10.1318 8.86133 9.59115 9.11059 9.20901 9.50778C8.99193 9.69264 8.79892 9.87308 8.67609 10.0215L8.59387 10.1198C8.21035 10.5774 7.73296 11.1469 7.73647 12.1131C7.73985 13.0104 8.48646 13.7409 9.40065 13.7409C9.65434 13.7414 9.90473 13.6846 10.1323 13.5748C10.3598 13.465 10.5584 13.3053 10.7125 13.108C10.8666 13.3054 11.0652 13.4652 11.2929 13.5749C11.5205 13.6847 11.771 13.7415 12.0247 13.7409C12.9386 13.7409 13.685 13.0105 13.6885 12.1131C13.6921 11.1469 13.2145 10.5774 12.8311 10.1198L12.7489 10.0214Z" fill="#FC9685"/>
<path d="M9.06723 8.80825C9.84076 8.80825 10.4678 8.19452 10.4678 7.43745C10.4678 6.68038 9.84076 6.06665 9.06723 6.06665C8.2937 6.06665 7.66663 6.68038 7.66663 7.43745C7.66663 8.19452 8.2937 8.80825 9.06723 8.80825Z" fill="#FC9685"/>
</svg>
