<svg width="15" height="15" viewBox="0 0 15 15" fill="none" xmlns="http://www.w3.org/2000/svg">
<path d="M11.0086 9.6954C11.9163 8.45671 12.3229 6.92096 12.1469 5.39539C11.971 3.86981 11.2255 2.46693 10.0596 1.46739C8.89374 0.467859 7.39345 -0.0546064 5.85891 0.00452241C4.32436 0.0636513 2.86872 0.700014 1.78321 1.7863C0.697708 2.87258 0.0623867 4.32867 0.00435596 5.86326C-0.0536748 7.39785 0.469864 8.89777 1.47023 10.0629C2.4706 11.2281 3.87402 11.9726 5.39972 12.1474C6.92542 12.3223 8.46088 11.9146 9.69891 11.006H9.69798C9.7261 11.0435 9.7561 11.0791 9.78985 11.1138L13.3991 14.723C13.5749 14.8989 13.8133 14.9978 14.062 14.9979C14.3107 14.998 14.5492 14.8993 14.7251 14.7235C14.901 14.5477 14.9999 14.3092 15 14.0606C15.0001 13.8119 14.9014 13.5734 14.7256 13.3974L11.1164 9.78821C11.0828 9.75428 11.0468 9.72294 11.0086 9.69446V9.6954ZM11.2504 6.09178C11.2504 6.76889 11.1171 7.43936 10.8579 8.06492C10.5988 8.69048 10.219 9.25888 9.74024 9.73767C9.26146 10.2165 8.69306 10.5962 8.0675 10.8554C7.44194 11.1145 6.77147 11.2478 6.09436 11.2478C5.41726 11.2478 4.74679 11.1145 4.12123 10.8554C3.49566 10.5962 2.92726 10.2165 2.44848 9.73767C1.9697 9.25888 1.5899 8.69048 1.33079 8.06492C1.07167 7.43936 0.938307 6.76889 0.938307 6.09178C0.938307 4.72431 1.48153 3.41285 2.44848 2.4459C3.41543 1.47895 4.72689 0.935728 6.09436 0.935728C7.46183 0.935728 8.7733 1.47895 9.74024 2.4459C10.7072 3.41285 11.2504 4.72431 11.2504 6.09178Z" fill="white"/>
</svg>
