<svg width="50" height="50" viewBox="0 0 50 50" fill="none" xmlns="http://www.w3.org/2000/svg">
<path d="M39.5837 8.33331H10.417C8.75939 8.33331 7.16968 8.99179 5.99758 10.1639C4.82547 11.336 4.16699 12.9257 4.16699 14.5833V35.4166C4.16699 37.0742 4.82547 38.664 5.99758 39.8361C7.16968 41.0082 8.75939 41.6666 10.417 41.6666H39.5837C41.2413 41.6666 42.831 41.0082 44.0031 39.8361C45.1752 38.664 45.8337 37.0742 45.8337 35.4166V14.5833C45.8337 12.9257 45.1752 11.336 44.0031 10.1639C42.831 8.99179 41.2413 8.33331 39.5837 8.33331ZM38.1878 12.5L25.0003 22.3958L11.8128 12.5H38.1878ZM39.5837 37.5H10.417C9.86446 37.5 9.33455 37.2805 8.94385 36.8898C8.55315 36.4991 8.33366 35.9692 8.33366 35.4166V15.1041L23.7503 26.6666C24.1109 26.9371 24.5496 27.0833 25.0003 27.0833C25.4511 27.0833 25.8897 26.9371 26.2503 26.6666L41.667 15.1041V35.4166C41.667 35.9692 41.4475 36.4991 41.0568 36.8898C40.6661 37.2805 40.1362 37.5 39.5837 37.5Z" fill="#1A5163"/>
</svg>
