<svg width="312" height="175" viewBox="0 0 312 175" fill="none" xmlns="http://www.w3.org/2000/svg">
<path d="M312 0H87.5C39.1751 0 0 39.1751 0 87.5C0 135.825 39.1751 175 87.5 175H312V0Z" fill="#E1EFF3"/>
<path d="M81.824 39.664C81.6747 39.8133 81.456 39.9253 81.168 40C80.8907 40.0853 80.5547 40.128 80.16 40.128C79.7653 40.128 79.392 40.0693 79.04 39.952C78.688 39.8347 78.4 39.552 78.176 39.104L76.592 35.872C76.432 35.5413 76.288 35.232 76.16 34.944C76.032 34.6453 75.8933 34.304 75.744 33.92L75.648 33.936C75.6907 34.512 75.712 35.0987 75.712 35.696C75.7227 36.2933 75.728 36.88 75.728 37.456V39.936C75.6107 39.968 75.4293 40 75.184 40.032C74.9493 40.064 74.7147 40.08 74.48 40.08C74.2453 40.08 74.0373 40.064 73.856 40.032C73.6747 40 73.5253 39.936 73.408 39.84C73.2907 39.744 73.2 39.616 73.136 39.456C73.072 39.2853 73.04 39.0667 73.04 38.8V30.8C73.1893 30.5867 73.4187 30.4267 73.728 30.32C74.0373 30.2133 74.368 30.16 74.72 30.16C75.1147 30.16 75.488 30.224 75.84 30.352C76.2027 30.4693 76.4907 30.7467 76.704 31.184L78.304 34.416C78.464 34.7467 78.608 35.0613 78.736 35.36C78.864 35.648 79.0027 35.984 79.152 36.368L79.232 36.352C79.1893 35.776 79.1627 35.2 79.152 34.624C79.1413 34.048 79.136 33.472 79.136 32.896V30.304C79.2533 30.272 79.4293 30.24 79.664 30.208C79.9093 30.176 80.1493 30.16 80.384 30.16C80.8533 30.16 81.2107 30.2453 81.456 30.416C81.7013 30.576 81.824 30.9173 81.824 31.44V39.664ZM93.3394 36.112C93.3394 36.7733 93.238 37.3653 93.0354 37.888C92.8327 38.4 92.5447 38.832 92.1714 39.184C91.8087 39.536 91.3714 39.8027 90.8594 39.984C90.3474 40.1653 89.7767 40.256 89.1474 40.256C88.518 40.256 87.9474 40.16 87.4354 39.968C86.9234 39.776 86.4807 39.504 86.1074 39.152C85.7447 38.7893 85.462 38.352 85.2594 37.84C85.0567 37.328 84.9554 36.752 84.9554 36.112C84.9554 35.4827 85.0567 34.912 85.2594 34.4C85.462 33.888 85.7447 33.456 86.1074 33.104C86.4807 32.7413 86.9234 32.464 87.4354 32.272C87.9474 32.08 88.518 31.984 89.1474 31.984C89.7767 31.984 90.3474 32.0853 90.8594 32.288C91.3714 32.48 91.8087 32.7573 92.1714 33.12C92.5447 33.472 92.8327 33.904 93.0354 34.416C93.238 34.928 93.3394 35.4933 93.3394 36.112ZM87.7394 36.112C87.7394 36.7627 87.862 37.264 88.1074 37.616C88.3634 37.9573 88.7154 38.128 89.1634 38.128C89.6114 38.128 89.9527 37.952 90.1874 37.6C90.4327 37.248 90.5554 36.752 90.5554 36.112C90.5554 35.472 90.4327 34.9813 90.1874 34.64C89.942 34.288 89.5954 34.112 89.1474 34.112C88.6994 34.112 88.3527 34.288 88.1074 34.64C87.862 34.9813 87.7394 35.472 87.7394 36.112ZM102.826 37.68C102.826 38.4907 102.522 39.1253 101.914 39.584C101.306 40.0427 100.41 40.272 99.2264 40.272C98.7784 40.272 98.3624 40.24 97.9784 40.176C97.5944 40.112 97.2637 40.016 96.9864 39.888C96.7197 39.7493 96.5064 39.5787 96.3464 39.376C96.197 39.1733 96.1224 38.9333 96.1224 38.656C96.1224 38.4 96.1757 38.1867 96.2824 38.016C96.389 37.8347 96.517 37.6853 96.6664 37.568C96.9757 37.7387 97.3277 37.8933 97.7224 38.032C98.1277 38.16 98.5917 38.224 99.1144 38.224C99.445 38.224 99.6957 38.176 99.8664 38.08C100.048 37.984 100.138 37.856 100.138 37.696C100.138 37.5467 100.074 37.4293 99.9464 37.344C99.8184 37.2587 99.605 37.1893 99.3064 37.136L98.8264 37.04C97.8984 36.8587 97.205 36.576 96.7464 36.192C96.2984 35.7973 96.0744 35.2373 96.0744 34.512C96.0744 34.1173 96.1597 33.76 96.3304 33.44C96.501 33.12 96.741 32.8533 97.0504 32.64C97.3597 32.4267 97.7277 32.2613 98.1544 32.144C98.5917 32.0267 99.0717 31.968 99.5944 31.968C99.989 31.968 100.357 32 100.698 32.064C101.05 32.1173 101.354 32.2027 101.61 32.32C101.866 32.4373 102.069 32.592 102.218 32.784C102.368 32.9653 102.442 33.184 102.442 33.44C102.442 33.6853 102.394 33.8987 102.298 34.08C102.213 34.2507 102.101 34.3947 101.962 34.512C101.877 34.4587 101.749 34.4053 101.578 34.352C101.408 34.288 101.221 34.2347 101.018 34.192C100.816 34.1387 100.608 34.096 100.394 34.064C100.192 34.032 100.005 34.016 99.8344 34.016C99.4824 34.016 99.2104 34.0587 99.0184 34.144C98.8264 34.2187 98.7304 34.3413 98.7304 34.512C98.7304 34.6293 98.7837 34.7253 98.8904 34.8C98.997 34.8747 99.1997 34.944 99.4984 35.008L99.9944 35.12C101.018 35.3547 101.744 35.68 102.17 36.096C102.608 36.5013 102.826 37.0293 102.826 37.68ZM112.301 37.68C112.301 38.4907 111.997 39.1253 111.389 39.584C110.781 40.0427 109.885 40.272 108.701 40.272C108.253 40.272 107.837 40.24 107.453 40.176C107.069 40.112 106.739 40.016 106.461 39.888C106.195 39.7493 105.981 39.5787 105.821 39.376C105.672 39.1733 105.597 38.9333 105.597 38.656C105.597 38.4 105.651 38.1867 105.757 38.016C105.864 37.8347 105.992 37.6853 106.141 37.568C106.451 37.7387 106.803 37.8933 107.197 38.032C107.603 38.16 108.067 38.224 108.589 38.224C108.92 38.224 109.171 38.176 109.341 38.08C109.523 37.984 109.613 37.856 109.613 37.696C109.613 37.5467 109.549 37.4293 109.421 37.344C109.293 37.2587 109.08 37.1893 108.781 37.136L108.301 37.04C107.373 36.8587 106.68 36.576 106.221 36.192C105.773 35.7973 105.549 35.2373 105.549 34.512C105.549 34.1173 105.635 33.76 105.805 33.44C105.976 33.12 106.216 32.8533 106.525 32.64C106.835 32.4267 107.203 32.2613 107.629 32.144C108.067 32.0267 108.547 31.968 109.069 31.968C109.464 31.968 109.832 32 110.173 32.064C110.525 32.1173 110.829 32.2027 111.085 32.32C111.341 32.4373 111.544 32.592 111.693 32.784C111.843 32.9653 111.917 33.184 111.917 33.44C111.917 33.6853 111.869 33.8987 111.773 34.08C111.688 34.2507 111.576 34.3947 111.437 34.512C111.352 34.4587 111.224 34.4053 111.053 34.352C110.883 34.288 110.696 34.2347 110.493 34.192C110.291 34.1387 110.083 34.096 109.869 34.064C109.667 34.032 109.48 34.016 109.309 34.016C108.957 34.016 108.685 34.0587 108.493 34.144C108.301 34.2187 108.205 34.3413 108.205 34.512C108.205 34.6293 108.259 34.7253 108.365 34.8C108.472 34.8747 108.675 34.944 108.973 35.008L109.469 35.12C110.493 35.3547 111.219 35.68 111.645 36.096C112.083 36.5013 112.301 37.0293 112.301 37.68ZM123.343 36.112C123.343 36.7733 123.241 37.3653 123.039 37.888C122.836 38.4 122.548 38.832 122.175 39.184C121.812 39.536 121.375 39.8027 120.863 39.984C120.351 40.1653 119.78 40.256 119.151 40.256C118.521 40.256 117.951 40.16 117.439 39.968C116.927 39.776 116.484 39.504 116.111 39.152C115.748 38.7893 115.465 38.352 115.263 37.84C115.06 37.328 114.959 36.752 114.959 36.112C114.959 35.4827 115.06 34.912 115.263 34.4C115.465 33.888 115.748 33.456 116.111 33.104C116.484 32.7413 116.927 32.464 117.439 32.272C117.951 32.08 118.521 31.984 119.151 31.984C119.78 31.984 120.351 32.0853 120.863 32.288C121.375 32.48 121.812 32.7573 122.175 33.12C122.548 33.472 122.836 33.904 123.039 34.416C123.241 34.928 123.343 35.4933 123.343 36.112ZM117.743 36.112C117.743 36.7627 117.865 37.264 118.111 37.616C118.367 37.9573 118.719 38.128 119.167 38.128C119.615 38.128 119.956 37.952 120.191 37.6C120.436 37.248 120.559 36.752 120.559 36.112C120.559 35.472 120.436 34.9813 120.191 34.64C119.945 34.288 119.599 34.112 119.151 34.112C118.703 34.112 118.356 34.288 118.111 34.64C117.865 34.9813 117.743 35.472 117.743 36.112ZM132.83 37.68C132.83 38.4907 132.526 39.1253 131.918 39.584C131.31 40.0427 130.414 40.272 129.23 40.272C128.782 40.272 128.366 40.24 127.982 40.176C127.598 40.112 127.267 40.016 126.99 39.888C126.723 39.7493 126.51 39.5787 126.35 39.376C126.2 39.1733 126.126 38.9333 126.126 38.656C126.126 38.4 126.179 38.1867 126.286 38.016C126.392 37.8347 126.52 37.6853 126.67 37.568C126.979 37.7387 127.331 37.8933 127.726 38.032C128.131 38.16 128.595 38.224 129.118 38.224C129.448 38.224 129.699 38.176 129.87 38.08C130.051 37.984 130.141 37.856 130.141 37.696C130.141 37.5467 130.078 37.4293 129.95 37.344C129.822 37.2587 129.608 37.1893 129.31 37.136L128.83 37.04C127.902 36.8587 127.208 36.576 126.75 36.192C126.302 35.7973 126.078 35.2373 126.078 34.512C126.078 34.1173 126.163 33.76 126.334 33.44C126.504 33.12 126.744 32.8533 127.054 32.64C127.363 32.4267 127.731 32.2613 128.158 32.144C128.595 32.0267 129.075 31.968 129.598 31.968C129.992 31.968 130.36 32 130.702 32.064C131.054 32.1173 131.358 32.2027 131.614 32.32C131.87 32.4373 132.072 32.592 132.222 32.784C132.371 32.9653 132.446 33.184 132.446 33.44C132.446 33.6853 132.398 33.8987 132.302 34.08C132.216 34.2507 132.104 34.3947 131.966 34.512C131.88 34.4587 131.752 34.4053 131.582 34.352C131.411 34.288 131.224 34.2347 131.022 34.192C130.819 34.1387 130.611 34.096 130.398 34.064C130.195 34.032 130.008 34.016 129.838 34.016C129.486 34.016 129.214 34.0587 129.022 34.144C128.83 34.2187 128.734 34.3413 128.734 34.512C128.734 34.6293 128.787 34.7253 128.894 34.8C129 34.8747 129.203 34.944 129.502 35.008L129.998 35.12C131.022 35.3547 131.747 35.68 132.174 36.096C132.611 36.5013 132.83 37.0293 132.83 37.68ZM144.116 31.984C144.756 31.984 145.348 32.0693 145.892 32.24C146.446 32.4 146.921 32.6507 147.316 32.992C147.71 33.3333 148.02 33.7653 148.244 34.288C148.468 34.8 148.58 35.4133 148.58 36.128C148.58 36.8107 148.484 37.408 148.292 37.92C148.1 38.432 147.828 38.864 147.476 39.216C147.124 39.5573 146.697 39.8133 146.196 39.984C145.705 40.1547 145.156 40.24 144.548 40.24C144.089 40.24 143.662 40.1707 143.268 40.032V42.688C143.161 42.72 142.99 42.752 142.756 42.784C142.521 42.8267 142.281 42.848 142.036 42.848C141.801 42.848 141.588 42.832 141.396 42.8C141.214 42.768 141.06 42.704 140.932 42.608C140.804 42.512 140.708 42.3787 140.644 42.208C140.58 42.048 140.548 41.8347 140.548 41.568V33.888C140.548 33.6 140.606 33.3653 140.724 33.184C140.852 33.0027 141.022 32.8373 141.236 32.688C141.566 32.4747 141.977 32.304 142.468 32.176C142.958 32.048 143.508 31.984 144.116 31.984ZM144.148 38.096C145.246 38.096 145.796 37.44 145.796 36.128C145.796 35.4453 145.657 34.9387 145.38 34.608C145.113 34.2773 144.724 34.112 144.212 34.112C144.009 34.112 143.828 34.1387 143.668 34.192C143.508 34.2347 143.369 34.288 143.252 34.352V37.872C143.38 37.936 143.518 37.9893 143.668 38.032C143.817 38.0747 143.977 38.096 144.148 38.096ZM154.866 38.272C155.048 38.272 155.245 38.256 155.458 38.224C155.682 38.1813 155.848 38.128 155.954 38.064V36.784L154.802 36.88C154.504 36.9013 154.258 36.9653 154.066 37.072C153.874 37.1787 153.778 37.3387 153.778 37.552C153.778 37.7653 153.858 37.9413 154.018 38.08C154.189 38.208 154.472 38.272 154.866 38.272ZM154.738 31.984C155.314 31.984 155.837 32.0427 156.306 32.16C156.786 32.2773 157.192 32.4587 157.522 32.704C157.864 32.9387 158.125 33.2427 158.306 33.616C158.488 33.9787 158.578 34.4107 158.578 34.912V38.496C158.578 38.7733 158.498 39.0027 158.338 39.184C158.189 39.3547 158.008 39.504 157.794 39.632C157.101 40.048 156.125 40.256 154.866 40.256C154.301 40.256 153.789 40.2027 153.33 40.096C152.882 39.9893 152.493 39.8293 152.162 39.616C151.842 39.4027 151.592 39.1307 151.41 38.8C151.24 38.4693 151.154 38.0853 151.154 37.648C151.154 36.912 151.373 36.3467 151.81 35.952C152.248 35.5573 152.925 35.312 153.842 35.216L155.938 34.992V34.88C155.938 34.5707 155.8 34.352 155.522 34.224C155.256 34.0853 154.866 34.016 154.354 34.016C153.949 34.016 153.554 34.0587 153.17 34.144C152.786 34.2293 152.44 34.336 152.13 34.464C151.992 34.368 151.874 34.224 151.778 34.032C151.682 33.8293 151.634 33.6213 151.634 33.408C151.634 33.1307 151.698 32.912 151.826 32.752C151.965 32.5813 152.173 32.4373 152.45 32.32C152.76 32.2027 153.122 32.1173 153.538 32.064C153.965 32.0107 154.365 31.984 154.738 31.984ZM164.561 39.984C164.455 40.016 164.284 40.048 164.049 40.08C163.825 40.112 163.591 40.128 163.345 40.128C163.111 40.128 162.897 40.112 162.705 40.08C162.524 40.048 162.369 39.984 162.241 39.888C162.113 39.792 162.012 39.664 161.937 39.504C161.873 39.3333 161.841 39.1147 161.841 38.848V34.048C161.841 33.8027 161.884 33.5947 161.969 33.424C162.065 33.2427 162.199 33.0827 162.369 32.944C162.54 32.8053 162.748 32.6827 162.993 32.576C163.249 32.4587 163.521 32.3573 163.809 32.272C164.097 32.1867 164.396 32.1227 164.705 32.08C165.015 32.0267 165.324 32 165.633 32C166.145 32 166.551 32.1013 166.849 32.304C167.148 32.496 167.297 32.816 167.297 33.264C167.297 33.4133 167.276 33.5627 167.233 33.712C167.191 33.8507 167.137 33.9787 167.073 34.096C166.849 34.096 166.62 34.1067 166.385 34.128C166.151 34.1493 165.921 34.1813 165.697 34.224C165.473 34.2667 165.26 34.3147 165.057 34.368C164.865 34.4107 164.7 34.464 164.561 34.528V39.984ZM174.107 34.128C173.84 34.128 173.584 34.1707 173.339 34.256C173.104 34.3413 172.896 34.4693 172.715 34.64C172.544 34.8 172.405 35.0027 172.299 35.248C172.192 35.4933 172.139 35.7813 172.139 36.112C172.139 36.7733 172.325 37.2693 172.699 37.6C173.083 37.9307 173.547 38.096 174.091 38.096C174.411 38.096 174.688 38.0587 174.923 37.984C175.157 37.9093 175.365 37.8293 175.547 37.744C175.76 37.8933 175.92 38.0587 176.027 38.24C176.133 38.4107 176.187 38.6187 176.187 38.864C176.187 39.3013 175.979 39.6427 175.563 39.888C175.147 40.1227 174.571 40.24 173.835 40.24C173.163 40.24 172.555 40.144 172.011 39.952C171.467 39.7493 170.997 39.472 170.603 39.12C170.219 38.7573 169.92 38.3253 169.707 37.824C169.493 37.3227 169.387 36.768 169.387 36.16C169.387 35.456 169.499 34.8427 169.723 34.32C169.957 33.7867 170.272 33.3493 170.667 33.008C171.061 32.6667 171.515 32.4107 172.027 32.24C172.549 32.0693 173.099 31.984 173.675 31.984C174.443 31.984 175.035 32.1227 175.451 32.4C175.867 32.6773 176.075 33.0347 176.075 33.472C176.075 33.6747 176.027 33.8667 175.931 34.048C175.835 34.2187 175.723 34.368 175.595 34.496C175.413 34.4107 175.195 34.3307 174.939 34.256C174.683 34.1707 174.405 34.128 174.107 34.128ZM183.028 40.256C182.399 40.256 181.812 40.1707 181.268 40C180.735 39.8187 180.266 39.552 179.86 39.2C179.466 38.848 179.151 38.4053 178.916 37.872C178.692 37.3387 178.58 36.7147 178.58 36C178.58 35.296 178.692 34.6933 178.916 34.192C179.151 33.68 179.455 33.264 179.828 32.944C180.202 32.6133 180.628 32.3733 181.108 32.224C181.588 32.064 182.079 31.984 182.58 31.984C183.146 31.984 183.658 32.0693 184.116 32.24C184.586 32.4107 184.986 32.6453 185.316 32.944C185.658 33.2427 185.919 33.6 186.1 34.016C186.292 34.432 186.388 34.8853 186.388 35.376C186.388 35.7387 186.287 36.016 186.084 36.208C185.882 36.4 185.599 36.5227 185.236 36.576L181.284 37.168C181.402 37.52 181.642 37.7867 182.004 37.968C182.367 38.1387 182.783 38.224 183.252 38.224C183.69 38.224 184.1 38.1707 184.484 38.064C184.879 37.9467 185.199 37.8133 185.444 37.664C185.615 37.7707 185.759 37.92 185.876 38.112C185.994 38.304 186.052 38.5067 186.052 38.72C186.052 39.2 185.828 39.5573 185.38 39.792C185.039 39.9733 184.655 40.096 184.228 40.16C183.802 40.224 183.402 40.256 183.028 40.256ZM182.58 33.968C182.324 33.968 182.1 34.0107 181.908 34.096C181.727 34.1813 181.578 34.2933 181.46 34.432C181.343 34.56 181.252 34.7093 181.188 34.88C181.135 35.04 181.103 35.2053 181.092 35.376L183.828 34.928C183.796 34.7147 183.679 34.5013 183.476 34.288C183.274 34.0747 182.975 33.968 182.58 33.968ZM189.234 30.064C189.234 29.6587 189.367 29.3173 189.634 29.04C189.911 28.7627 190.274 28.624 190.722 28.624C191.17 28.624 191.527 28.7627 191.794 29.04C192.071 29.3173 192.21 29.6587 192.21 30.064C192.21 30.4693 192.071 30.8107 191.794 31.088C191.527 31.3653 191.17 31.504 190.722 31.504C190.274 31.504 189.911 31.3653 189.634 31.088C189.367 30.8107 189.234 30.4693 189.234 30.064ZM192.082 39.984C191.964 40.0053 191.788 40.032 191.554 40.064C191.33 40.1067 191.1 40.128 190.866 40.128C190.631 40.128 190.418 40.112 190.226 40.08C190.044 40.048 189.89 39.984 189.762 39.888C189.634 39.792 189.532 39.664 189.458 39.504C189.394 39.3333 189.362 39.1147 189.362 38.848V32.336C189.479 32.3147 189.65 32.288 189.874 32.256C190.108 32.2133 190.343 32.192 190.578 32.192C190.812 32.192 191.02 32.208 191.202 32.24C191.394 32.272 191.554 32.336 191.682 32.432C191.81 32.528 191.906 32.6613 191.97 32.832C192.044 32.992 192.082 33.2053 192.082 33.472V39.984ZM198.133 39.984C198.027 40.016 197.856 40.048 197.621 40.08C197.397 40.112 197.163 40.128 196.917 40.128C196.683 40.128 196.469 40.112 196.277 40.08C196.096 40.048 195.941 39.984 195.813 39.888C195.685 39.792 195.584 39.664 195.509 39.504C195.445 39.3333 195.413 39.1147 195.413 38.848V34.048C195.413 33.8027 195.456 33.5947 195.541 33.424C195.637 33.2427 195.771 33.0827 195.941 32.944C196.112 32.8053 196.32 32.6827 196.565 32.576C196.821 32.4587 197.093 32.3573 197.381 32.272C197.669 32.1867 197.968 32.1227 198.277 32.08C198.587 32.0267 198.896 32 199.205 32C199.717 32 200.123 32.1013 200.421 32.304C200.72 32.496 200.869 32.816 200.869 33.264C200.869 33.4133 200.848 33.5627 200.805 33.712C200.763 33.8507 200.709 33.9787 200.645 34.096C200.421 34.096 200.192 34.1067 199.957 34.128C199.723 34.1493 199.493 34.1813 199.269 34.224C199.045 34.2667 198.832 34.3147 198.629 34.368C198.437 34.4107 198.272 34.464 198.133 34.528V39.984ZM211.342 36.112C211.342 36.7733 211.241 37.3653 211.038 37.888C210.836 38.4 210.548 38.832 210.174 39.184C209.812 39.536 209.374 39.8027 208.862 39.984C208.35 40.1653 207.78 40.256 207.15 40.256C206.521 40.256 205.95 40.16 205.438 39.968C204.926 39.776 204.484 39.504 204.11 39.152C203.748 38.7893 203.465 38.352 203.262 37.84C203.06 37.328 202.958 36.752 202.958 36.112C202.958 35.4827 203.06 34.912 203.262 34.4C203.465 33.888 203.748 33.456 204.11 33.104C204.484 32.7413 204.926 32.464 205.438 32.272C205.95 32.08 206.521 31.984 207.15 31.984C207.78 31.984 208.35 32.0853 208.862 32.288C209.374 32.48 209.812 32.7573 210.174 33.12C210.548 33.472 210.836 33.904 211.038 34.416C211.241 34.928 211.342 35.4933 211.342 36.112ZM205.742 36.112C205.742 36.7627 205.865 37.264 206.11 37.616C206.366 37.9573 206.718 38.128 207.166 38.128C207.614 38.128 207.956 37.952 208.19 37.6C208.436 37.248 208.558 36.752 208.558 36.112C208.558 35.472 208.436 34.9813 208.19 34.64C207.945 34.288 207.598 34.112 207.15 34.112C206.702 34.112 206.356 34.288 206.11 34.64C205.865 34.9813 205.742 35.472 205.742 36.112ZM220.83 37.68C220.83 38.4907 220.526 39.1253 219.918 39.584C219.31 40.0427 218.414 40.272 217.23 40.272C216.782 40.272 216.366 40.24 215.982 40.176C215.598 40.112 215.267 40.016 214.99 39.888C214.723 39.7493 214.51 39.5787 214.35 39.376C214.2 39.1733 214.126 38.9333 214.126 38.656C214.126 38.4 214.179 38.1867 214.286 38.016C214.392 37.8347 214.52 37.6853 214.67 37.568C214.979 37.7387 215.331 37.8933 215.726 38.032C216.131 38.16 216.595 38.224 217.118 38.224C217.448 38.224 217.699 38.176 217.87 38.08C218.051 37.984 218.141 37.856 218.141 37.696C218.141 37.5467 218.078 37.4293 217.95 37.344C217.822 37.2587 217.608 37.1893 217.31 37.136L216.83 37.04C215.902 36.8587 215.208 36.576 214.75 36.192C214.302 35.7973 214.078 35.2373 214.078 34.512C214.078 34.1173 214.163 33.76 214.334 33.44C214.504 33.12 214.744 32.8533 215.054 32.64C215.363 32.4267 215.731 32.2613 216.158 32.144C216.595 32.0267 217.075 31.968 217.598 31.968C217.992 31.968 218.36 32 218.702 32.064C219.054 32.1173 219.358 32.2027 219.614 32.32C219.87 32.4373 220.072 32.592 220.222 32.784C220.371 32.9653 220.446 33.184 220.446 33.44C220.446 33.6853 220.398 33.8987 220.302 34.08C220.216 34.2507 220.104 34.3947 219.966 34.512C219.88 34.4587 219.752 34.4053 219.582 34.352C219.411 34.288 219.224 34.2347 219.022 34.192C218.819 34.1387 218.611 34.096 218.398 34.064C218.195 34.032 218.008 34.016 217.838 34.016C217.486 34.016 217.214 34.0587 217.022 34.144C216.83 34.2187 216.734 34.3413 216.734 34.512C216.734 34.6293 216.787 34.7253 216.894 34.8C217 34.8747 217.203 34.944 217.502 35.008L217.998 35.12C219.022 35.3547 219.747 35.68 220.174 36.096C220.611 36.5013 220.83 37.0293 220.83 37.68ZM223.425 33.68C223.425 33.232 223.563 32.8587 223.841 32.56C224.118 32.2613 224.497 32.112 224.977 32.112C225.457 32.112 225.835 32.2613 226.113 32.56C226.39 32.8587 226.529 33.232 226.529 33.68C226.529 34.128 226.39 34.5013 226.113 34.8C225.835 35.0987 225.457 35.248 224.977 35.248C224.497 35.248 224.118 35.0987 223.841 34.8C223.563 34.5013 223.425 34.128 223.425 33.68ZM223.425 38.704C223.425 38.256 223.563 37.8827 223.841 37.584C224.118 37.2853 224.497 37.136 224.977 37.136C225.457 37.136 225.835 37.2853 226.113 37.584C226.39 37.8827 226.529 38.256 226.529 38.704C226.529 39.152 226.39 39.5253 226.113 39.824C225.835 40.1227 225.457 40.272 224.977 40.272C224.497 40.272 224.118 40.1227 223.841 39.824C223.563 39.5253 223.425 39.152 223.425 38.704Z" fill="#1A5163"/>
<path d="M81.0067 95.3334C81.6633 95.3334 82.3135 95.204 82.9201 94.9528C83.5268 94.7015 84.078 94.3332 84.5422 93.8689C85.0065 93.4046 85.3748 92.8534 85.6261 92.2468C85.8774 91.6402 86.0067 90.99 86.0067 90.3334C86.0067 89.6768 85.8774 89.0266 85.6261 88.42C85.3748 87.8133 85.0065 87.2621 84.5422 86.7978C84.078 86.3335 83.5268 85.9652 82.9201 85.714C82.3135 85.4627 81.6633 85.3334 81.0067 85.3334C79.6806 85.3334 78.4089 85.8602 77.4712 86.7978C76.5335 87.7355 76.0067 89.0073 76.0067 90.3334C76.0067 91.6595 76.5335 92.9312 77.4712 93.8689C78.4089 94.8066 79.6806 95.3334 81.0067 95.3334Z" fill="white"/>
<path d="M106 118.667C106 120.435 105.298 122.13 104.047 123.381C102.797 124.631 101.101 125.333 99.3333 125.333H72.6667C70.8986 125.333 69.2029 124.631 67.9526 123.381C66.7024 122.13 66 120.435 66 118.667V78.6667C66 76.8986 66.7024 75.2029 67.9526 73.9526C69.2029 72.7024 70.8986 72 72.6667 72H91L106 87V118.667ZM72.6667 75.3333C71.7826 75.3333 70.9348 75.6845 70.3096 76.3096C69.6845 76.9348 69.3333 77.7826 69.3333 78.6667V112L76.7467 104.587C77.0094 104.325 77.3521 104.158 77.7204 104.112C78.0887 104.067 78.4616 104.146 78.78 104.337L86 108.667L93.19 98.6C93.3307 98.4032 93.5125 98.2395 93.7228 98.1201C93.9332 98.0006 94.167 97.9284 94.408 97.9084C94.6491 97.8885 94.8916 97.9212 95.1187 98.0043C95.3459 98.0875 95.5522 98.2191 95.7233 98.39L102.667 105.333V87H96C94.6739 87 93.4021 86.4732 92.4645 85.5355C91.5268 84.5979 91 83.3261 91 82V75.3333H72.6667Z" fill="white"/>
<path d="M147.007 95.3334C147.663 95.3334 148.314 95.204 148.92 94.9528C149.527 94.7015 150.078 94.3332 150.542 93.8689C151.007 93.4046 151.375 92.8534 151.626 92.2468C151.877 91.6402 152.007 90.99 152.007 90.3334C152.007 89.6768 151.877 89.0266 151.626 88.42C151.375 87.8133 151.007 87.2621 150.542 86.7978C150.078 86.3335 149.527 85.9652 148.92 85.714C148.314 85.4627 147.663 85.3334 147.007 85.3334C145.681 85.3334 144.409 85.8602 143.471 86.7978C142.533 87.7355 142.007 89.0073 142.007 90.3334C142.007 91.6595 142.533 92.9312 143.471 93.8689C144.409 94.8066 145.681 95.3334 147.007 95.3334Z" fill="white"/>
<path d="M172 118.667C172 120.435 171.298 122.13 170.047 123.381C168.797 124.631 167.101 125.333 165.333 125.333H138.667C136.899 125.333 135.203 124.631 133.953 123.381C132.702 122.13 132 120.435 132 118.667V78.6667C132 76.8986 132.702 75.2029 133.953 73.9526C135.203 72.7024 136.899 72 138.667 72H157L172 87V118.667ZM138.667 75.3333C137.783 75.3333 136.935 75.6845 136.31 76.3096C135.685 76.9348 135.333 77.7826 135.333 78.6667V112L142.747 104.587C143.009 104.325 143.352 104.158 143.72 104.112C144.089 104.067 144.462 104.146 144.78 104.337L152 108.667L159.19 98.6C159.331 98.4032 159.513 98.2395 159.723 98.1201C159.933 98.0006 160.167 97.9284 160.408 97.9084C160.649 97.8885 160.892 97.9212 161.119 98.0043C161.346 98.0875 161.552 98.2191 161.723 98.39L168.667 105.333V87H162C160.674 87 159.402 86.4732 158.464 85.5355C157.527 84.5979 157 83.3261 157 82V75.3333H138.667Z" fill="white"/>
<path d="M213.007 95.3334C213.663 95.3334 214.314 95.204 214.92 94.9528C215.527 94.7015 216.078 94.3332 216.542 93.8689C217.007 93.4046 217.375 92.8534 217.626 92.2468C217.877 91.6402 218.007 90.99 218.007 90.3334C218.007 89.6768 217.877 89.0266 217.626 88.42C217.375 87.8133 217.007 87.2621 216.542 86.7978C216.078 86.3335 215.527 85.9652 214.92 85.714C214.314 85.4627 213.663 85.3334 213.007 85.3334C211.681 85.3334 210.409 85.8602 209.471 86.7978C208.533 87.7355 208.007 89.0073 208.007 90.3334C208.007 91.6595 208.533 92.9312 209.471 93.8689C210.409 94.8066 211.681 95.3334 213.007 95.3334Z" fill="white"/>
<path d="M238 118.667C238 120.435 237.298 122.13 236.047 123.381C234.797 124.631 233.101 125.333 231.333 125.333H204.667C202.899 125.333 201.203 124.631 199.953 123.381C198.702 122.13 198 120.435 198 118.667V78.6667C198 76.8986 198.702 75.2029 199.953 73.9526C201.203 72.7024 202.899 72 204.667 72H223L238 87V118.667ZM204.667 75.3333C203.783 75.3333 202.935 75.6845 202.31 76.3096C201.685 76.9348 201.333 77.7826 201.333 78.6667V112L208.747 104.587C209.009 104.325 209.352 104.158 209.72 104.112C210.089 104.067 210.462 104.146 210.78 104.337L218 108.667L225.19 98.6C225.331 98.4032 225.513 98.2395 225.723 98.1201C225.933 98.0006 226.167 97.9284 226.408 97.9084C226.649 97.8885 226.892 97.9212 227.119 98.0043C227.346 98.0875 227.552 98.2191 227.723 98.39L234.667 105.333V87H228C226.674 87 225.402 86.4732 224.464 85.5355C223.527 84.5979 223 83.3261 223 82V75.3333H204.667Z" fill="white"/>
</svg>
