<svg width="228" height="1325" viewBox="0 0 228 1325" fill="none" xmlns="http://www.w3.org/2000/svg">
<circle cx="125.916" cy="1253.46" r="71.0443" stroke="white"/>
<circle cx="117.332" cy="1239.15" r="71.5443" fill="#FC9685"/>
<path d="M102.588 1240.12C102.98 1240.12 103.278 1240.03 103.484 1239.85C103.698 1239.66 103.806 1239.38 103.806 1239.01C103.806 1238.66 103.694 1238.39 103.47 1238.2C103.255 1238 102.938 1237.91 102.518 1237.91C102.368 1237.91 102.242 1237.91 102.14 1237.92C102.046 1237.92 101.948 1237.93 101.846 1237.95V1240.12H102.588ZM101.86 1244.61C101.757 1244.64 101.594 1244.67 101.37 1244.7C101.155 1244.72 100.94 1244.74 100.726 1244.74C100.511 1244.74 100.32 1244.72 100.152 1244.68C99.993 1244.65 99.8576 1244.6 99.7456 1244.51C99.6336 1244.43 99.5496 1244.31 99.4936 1244.16C99.4376 1244.01 99.4096 1243.82 99.4096 1243.58V1236.98C99.4096 1236.79 99.461 1236.64 99.5636 1236.53C99.6756 1236.42 99.825 1236.33 100.012 1236.27C100.329 1236.16 100.688 1236.08 101.09 1236.03C101.5 1235.97 101.911 1235.95 102.322 1235.95C103.61 1235.95 104.594 1236.22 105.276 1236.77C105.957 1237.32 106.298 1238.07 106.298 1239.01C106.298 1239.47 106.223 1239.88 106.074 1240.26C105.934 1240.62 105.719 1240.94 105.43 1241.21C105.15 1241.47 104.79 1241.68 104.352 1241.83C103.922 1241.97 103.423 1242.04 102.854 1242.04H101.86V1244.61ZM110.138 1243.16C110.296 1243.16 110.469 1243.14 110.656 1243.11C110.852 1243.08 110.996 1243.03 111.09 1242.97V1241.85L110.082 1241.94C109.82 1241.96 109.606 1242.01 109.438 1242.11C109.27 1242.2 109.186 1242.34 109.186 1242.53C109.186 1242.71 109.256 1242.87 109.396 1242.99C109.545 1243.1 109.792 1243.16 110.138 1243.16ZM110.026 1237.65C110.53 1237.65 110.987 1237.7 111.398 1237.81C111.818 1237.91 112.172 1238.07 112.462 1238.28C112.76 1238.49 112.989 1238.75 113.148 1239.08C113.306 1239.4 113.386 1239.78 113.386 1240.22V1243.35C113.386 1243.59 113.316 1243.79 113.176 1243.95C113.045 1244.1 112.886 1244.23 112.7 1244.35C112.093 1244.71 111.239 1244.89 110.138 1244.89C109.643 1244.89 109.195 1244.84 108.794 1244.75C108.402 1244.66 108.061 1244.52 107.772 1244.33C107.492 1244.14 107.272 1243.91 107.114 1243.62C106.964 1243.33 106.89 1242.99 106.89 1242.61C106.89 1241.97 107.081 1241.47 107.464 1241.13C107.846 1240.78 108.439 1240.57 109.242 1240.48L111.076 1240.29V1240.19C111.076 1239.92 110.954 1239.73 110.712 1239.61C110.478 1239.49 110.138 1239.43 109.69 1239.43C109.335 1239.43 108.99 1239.47 108.654 1239.54C108.318 1239.62 108.014 1239.71 107.744 1239.82C107.622 1239.74 107.52 1239.61 107.436 1239.45C107.352 1239.27 107.31 1239.09 107.31 1238.9C107.31 1238.66 107.366 1238.47 107.478 1238.33C107.599 1238.18 107.781 1238.05 108.024 1237.95C108.294 1237.84 108.612 1237.77 108.976 1237.72C109.349 1237.68 109.699 1237.65 110.026 1237.65ZM120.581 1242.64C120.581 1243.35 120.315 1243.9 119.783 1244.3C119.251 1244.7 118.467 1244.91 117.431 1244.91C117.039 1244.91 116.675 1244.88 116.339 1244.82C116.003 1244.77 115.714 1244.68 115.471 1244.57C115.238 1244.45 115.051 1244.3 114.911 1244.12C114.78 1243.94 114.715 1243.73 114.715 1243.49C114.715 1243.27 114.762 1243.08 114.855 1242.93C114.948 1242.77 115.06 1242.64 115.191 1242.54C115.462 1242.69 115.77 1242.82 116.115 1242.95C116.47 1243.06 116.876 1243.11 117.333 1243.11C117.622 1243.11 117.842 1243.07 117.991 1242.99C118.15 1242.9 118.229 1242.79 118.229 1242.65C118.229 1242.52 118.173 1242.42 118.061 1242.34C117.949 1242.27 117.762 1242.21 117.501 1242.16L117.081 1242.08C116.269 1241.92 115.662 1241.67 115.261 1241.34C114.869 1240.99 114.673 1240.5 114.673 1239.87C114.673 1239.52 114.748 1239.21 114.897 1238.93C115.046 1238.65 115.256 1238.41 115.527 1238.23C115.798 1238.04 116.12 1237.9 116.493 1237.79C116.876 1237.69 117.296 1237.64 117.753 1237.64C118.098 1237.64 118.42 1237.67 118.719 1237.72C119.027 1237.77 119.293 1237.84 119.517 1237.95C119.741 1238.05 119.918 1238.19 120.049 1238.35C120.18 1238.51 120.245 1238.7 120.245 1238.93C120.245 1239.14 120.203 1239.33 120.119 1239.49C120.044 1239.64 119.946 1239.76 119.825 1239.87C119.75 1239.82 119.638 1239.77 119.489 1239.73C119.34 1239.67 119.176 1239.62 118.999 1239.59C118.822 1239.54 118.64 1239.5 118.453 1239.47C118.276 1239.45 118.112 1239.43 117.963 1239.43C117.655 1239.43 117.417 1239.47 117.249 1239.54C117.081 1239.61 116.997 1239.72 116.997 1239.87C116.997 1239.97 117.044 1240.05 117.137 1240.12C117.23 1240.18 117.408 1240.24 117.669 1240.3L118.103 1240.4C118.999 1240.6 119.634 1240.89 120.007 1241.25C120.39 1241.61 120.581 1242.07 120.581 1242.64ZM127.472 1242.64C127.472 1243.35 127.206 1243.9 126.674 1244.3C126.142 1244.7 125.358 1244.91 124.322 1244.91C123.93 1244.91 123.566 1244.88 123.23 1244.82C122.894 1244.77 122.604 1244.68 122.362 1244.57C122.128 1244.45 121.942 1244.3 121.802 1244.12C121.671 1243.94 121.606 1243.73 121.606 1243.49C121.606 1243.27 121.652 1243.08 121.746 1242.93C121.839 1242.77 121.951 1242.64 122.082 1242.54C122.352 1242.69 122.66 1242.82 123.006 1242.95C123.36 1243.06 123.766 1243.11 124.224 1243.11C124.513 1243.11 124.732 1243.07 124.882 1242.99C125.04 1242.9 125.12 1242.79 125.12 1242.65C125.12 1242.52 125.064 1242.42 124.952 1242.34C124.84 1242.27 124.653 1242.21 124.392 1242.16L123.972 1242.08C123.16 1241.92 122.553 1241.67 122.152 1241.34C121.76 1240.99 121.564 1240.5 121.564 1239.87C121.564 1239.52 121.638 1239.21 121.788 1238.93C121.937 1238.65 122.147 1238.41 122.418 1238.23C122.688 1238.04 123.01 1237.9 123.384 1237.79C123.766 1237.69 124.186 1237.64 124.644 1237.64C124.989 1237.64 125.311 1237.67 125.61 1237.72C125.918 1237.77 126.184 1237.84 126.408 1237.95C126.632 1238.05 126.809 1238.19 126.94 1238.35C127.07 1238.51 127.136 1238.7 127.136 1238.93C127.136 1239.14 127.094 1239.33 127.01 1239.49C126.935 1239.64 126.837 1239.76 126.716 1239.87C126.641 1239.82 126.529 1239.77 126.38 1239.73C126.23 1239.67 126.067 1239.62 125.89 1239.59C125.712 1239.54 125.53 1239.5 125.344 1239.47C125.166 1239.45 125.003 1239.43 124.854 1239.43C124.546 1239.43 124.308 1239.47 124.14 1239.54C123.972 1239.61 123.888 1239.72 123.888 1239.87C123.888 1239.97 123.934 1240.05 124.028 1240.12C124.121 1240.18 124.298 1240.24 124.56 1240.3L124.994 1240.4C125.89 1240.6 126.524 1240.89 126.898 1241.25C127.28 1241.61 127.472 1242.07 127.472 1242.64ZM135.733 1241.27C135.733 1241.84 135.644 1242.36 135.467 1242.82C135.289 1243.27 135.037 1243.65 134.711 1243.95C134.393 1244.26 134.011 1244.49 133.563 1244.65C133.115 1244.81 132.615 1244.89 132.065 1244.89C131.514 1244.89 131.015 1244.81 130.567 1244.64C130.119 1244.47 129.731 1244.23 129.405 1243.93C129.087 1243.61 128.84 1243.23 128.663 1242.78C128.485 1242.33 128.397 1241.83 128.397 1241.27C128.397 1240.71 128.485 1240.22 128.663 1239.77C128.84 1239.32 129.087 1238.94 129.405 1238.63C129.731 1238.32 130.119 1238.07 130.567 1237.91C131.015 1237.74 131.514 1237.65 132.065 1237.65C132.615 1237.65 133.115 1237.74 133.563 1237.92C134.011 1238.09 134.393 1238.33 134.711 1238.65C135.037 1238.96 135.289 1239.33 135.467 1239.78C135.644 1240.23 135.733 1240.72 135.733 1241.27ZM130.833 1241.27C130.833 1241.83 130.94 1242.27 131.155 1242.58C131.379 1242.88 131.687 1243.03 132.079 1243.03C132.471 1243.03 132.769 1242.88 132.975 1242.57C133.189 1242.26 133.297 1241.83 133.297 1241.27C133.297 1240.71 133.189 1240.28 132.975 1239.98C132.76 1239.67 132.457 1239.52 132.065 1239.52C131.673 1239.52 131.369 1239.67 131.155 1239.98C130.94 1240.28 130.833 1240.71 130.833 1241.27ZM117.092 1250.25C117.269 1250.2 117.47 1250.15 117.694 1250.11C117.927 1250.08 118.137 1250.06 118.324 1250.06C118.538 1250.06 118.744 1250.08 118.94 1250.13C119.145 1250.16 119.327 1250.23 119.486 1250.34C119.644 1250.43 119.77 1250.56 119.864 1250.73C119.957 1250.9 120.004 1251.11 120.004 1251.36V1255.08H121.25C121.306 1255.19 121.362 1255.32 121.418 1255.49C121.474 1255.66 121.502 1255.83 121.502 1256.02C121.502 1256.38 121.422 1256.63 121.264 1256.78C121.105 1256.93 120.904 1257 120.662 1257H120.004V1258.65C119.901 1258.67 119.747 1258.7 119.542 1258.72C119.336 1258.76 119.14 1258.78 118.954 1258.78C118.748 1258.78 118.566 1258.77 118.408 1258.75C118.249 1258.73 118.114 1258.69 118.002 1258.63C117.899 1258.55 117.82 1258.45 117.764 1258.32C117.708 1258.19 117.68 1258.01 117.68 1257.79V1257H114.166C113.951 1256.89 113.764 1256.73 113.606 1256.51C113.456 1256.29 113.382 1256.02 113.382 1255.7C113.382 1255.52 113.405 1255.33 113.452 1255.11C113.498 1254.9 113.578 1254.71 113.69 1254.55L117.092 1250.25ZM117.806 1252.45H117.764L115.902 1255.08H117.806V1252.45Z" fill="white"/>
<path d="M81.6703 1140.45C81.9395 1140.51 82.2075 1140.34 82.2689 1140.07L83.2696 1135.69C83.331 1135.42 83.1625 1135.15 82.8933 1135.09C82.6241 1135.03 82.356 1135.19 82.2946 1135.46L81.4052 1139.36L77.5053 1138.47C77.2361 1138.41 76.9681 1138.58 76.9066 1138.85C76.8452 1139.12 77.0137 1139.39 77.2829 1139.45L81.6703 1140.45ZM35.4043 935.562C20.4834 963.329 15.5103 988.358 22.5296 1019.55C29.5388 1050.69 48.5019 1087.96 81.3581 1140.23L82.2048 1139.7C49.3519 1087.43 30.4736 1050.29 23.5052 1019.33C16.5467 988.408 21.4598 963.625 36.2852 936.036L35.4043 935.562Z" fill="#FC9685"/>
<circle cx="125.916" cy="864.255" r="71.0443" stroke="white"/>
<circle cx="117.332" cy="849.946" r="71.5443" fill="#FC9685"/>
<path d="M102.588 850.917C102.98 850.917 103.278 850.828 103.484 850.651C103.698 850.464 103.806 850.184 103.806 849.811C103.806 849.456 103.694 849.185 103.47 848.999C103.255 848.803 102.938 848.705 102.518 848.705C102.368 848.705 102.242 848.709 102.14 848.719C102.046 848.719 101.948 848.728 101.846 848.747V850.917H102.588ZM101.86 855.411C101.757 855.439 101.594 855.467 101.37 855.495C101.155 855.523 100.94 855.537 100.726 855.537C100.511 855.537 100.32 855.518 100.152 855.481C99.993 855.453 99.8576 855.397 99.7456 855.313C99.6336 855.229 99.5496 855.112 99.4936 854.963C99.4376 854.813 99.4096 854.617 99.4096 854.375V847.781C99.4096 847.585 99.461 847.435 99.5636 847.333C99.6756 847.221 99.825 847.132 100.012 847.067C100.329 846.955 100.688 846.875 101.09 846.829C101.5 846.773 101.911 846.745 102.322 846.745C103.61 846.745 104.594 847.02 105.276 847.571C105.957 848.121 106.298 848.868 106.298 849.811C106.298 850.268 106.223 850.683 106.074 851.057C105.934 851.421 105.719 851.738 105.43 852.009C105.15 852.27 104.79 852.475 104.352 852.625C103.922 852.765 103.423 852.835 102.854 852.835H101.86V855.411ZM110.138 853.955C110.296 853.955 110.469 853.941 110.656 853.913C110.852 853.875 110.996 853.829 111.09 853.773V852.653L110.082 852.737C109.82 852.755 109.606 852.811 109.438 852.905C109.27 852.998 109.186 853.138 109.186 853.325C109.186 853.511 109.256 853.665 109.396 853.787C109.545 853.899 109.792 853.955 110.138 853.955ZM110.026 848.453C110.53 848.453 110.987 848.504 111.398 848.607C111.818 848.709 112.172 848.868 112.462 849.083C112.76 849.288 112.989 849.554 113.148 849.881C113.306 850.198 113.386 850.576 113.386 851.015V854.151C113.386 854.393 113.316 854.594 113.176 854.753C113.045 854.902 112.886 855.033 112.7 855.145C112.093 855.509 111.239 855.691 110.138 855.691C109.643 855.691 109.195 855.644 108.794 855.551C108.402 855.457 108.061 855.317 107.772 855.131C107.492 854.944 107.272 854.706 107.114 854.417C106.964 854.127 106.89 853.791 106.89 853.409C106.89 852.765 107.081 852.27 107.464 851.925C107.846 851.579 108.439 851.365 109.242 851.281L111.076 851.085V850.987C111.076 850.716 110.954 850.525 110.712 850.413C110.478 850.291 110.138 850.231 109.69 850.231C109.335 850.231 108.99 850.268 108.654 850.343C108.318 850.417 108.014 850.511 107.744 850.623C107.622 850.539 107.52 850.413 107.436 850.245C107.352 850.067 107.31 849.885 107.31 849.699C107.31 849.456 107.366 849.265 107.478 849.125C107.599 848.975 107.781 848.849 108.024 848.747C108.294 848.644 108.612 848.569 108.976 848.523C109.349 848.476 109.699 848.453 110.026 848.453ZM120.581 853.437C120.581 854.146 120.315 854.701 119.783 855.103C119.251 855.504 118.467 855.705 117.431 855.705C117.039 855.705 116.675 855.677 116.339 855.621C116.003 855.565 115.714 855.481 115.471 855.369C115.238 855.247 115.051 855.098 114.911 854.921C114.78 854.743 114.715 854.533 114.715 854.291C114.715 854.067 114.762 853.88 114.855 853.731C114.948 853.572 115.06 853.441 115.191 853.339C115.462 853.488 115.77 853.623 116.115 853.745C116.47 853.857 116.876 853.913 117.333 853.913C117.622 853.913 117.842 853.871 117.991 853.787C118.15 853.703 118.229 853.591 118.229 853.451C118.229 853.32 118.173 853.217 118.061 853.143C117.949 853.068 117.762 853.007 117.501 852.961L117.081 852.877C116.269 852.718 115.662 852.471 115.261 852.135C114.869 851.789 114.673 851.299 114.673 850.665C114.673 850.319 114.748 850.007 114.897 849.727C115.046 849.447 115.256 849.213 115.527 849.027C115.798 848.84 116.12 848.695 116.493 848.593C116.876 848.49 117.296 848.439 117.753 848.439C118.098 848.439 118.42 848.467 118.719 848.523C119.027 848.569 119.293 848.644 119.517 848.747C119.741 848.849 119.918 848.985 120.049 849.153C120.18 849.311 120.245 849.503 120.245 849.727C120.245 849.941 120.203 850.128 120.119 850.287C120.044 850.436 119.946 850.562 119.825 850.665C119.75 850.618 119.638 850.571 119.489 850.525C119.34 850.469 119.176 850.422 118.999 850.385C118.822 850.338 118.64 850.301 118.453 850.273C118.276 850.245 118.112 850.231 117.963 850.231C117.655 850.231 117.417 850.268 117.249 850.343C117.081 850.408 116.997 850.515 116.997 850.665C116.997 850.767 117.044 850.851 117.137 850.917C117.23 850.982 117.408 851.043 117.669 851.099L118.103 851.197C118.999 851.402 119.634 851.687 120.007 852.051C120.39 852.405 120.581 852.867 120.581 853.437ZM127.472 853.437C127.472 854.146 127.206 854.701 126.674 855.103C126.142 855.504 125.358 855.705 124.322 855.705C123.93 855.705 123.566 855.677 123.23 855.621C122.894 855.565 122.604 855.481 122.362 855.369C122.128 855.247 121.942 855.098 121.802 854.921C121.671 854.743 121.606 854.533 121.606 854.291C121.606 854.067 121.652 853.88 121.746 853.731C121.839 853.572 121.951 853.441 122.082 853.339C122.352 853.488 122.66 853.623 123.006 853.745C123.36 853.857 123.766 853.913 124.224 853.913C124.513 853.913 124.732 853.871 124.882 853.787C125.04 853.703 125.12 853.591 125.12 853.451C125.12 853.32 125.064 853.217 124.952 853.143C124.84 853.068 124.653 853.007 124.392 852.961L123.972 852.877C123.16 852.718 122.553 852.471 122.152 852.135C121.76 851.789 121.564 851.299 121.564 850.665C121.564 850.319 121.638 850.007 121.788 849.727C121.937 849.447 122.147 849.213 122.418 849.027C122.688 848.84 123.01 848.695 123.384 848.593C123.766 848.49 124.186 848.439 124.644 848.439C124.989 848.439 125.311 848.467 125.61 848.523C125.918 848.569 126.184 848.644 126.408 848.747C126.632 848.849 126.809 848.985 126.94 849.153C127.07 849.311 127.136 849.503 127.136 849.727C127.136 849.941 127.094 850.128 127.01 850.287C126.935 850.436 126.837 850.562 126.716 850.665C126.641 850.618 126.529 850.571 126.38 850.525C126.23 850.469 126.067 850.422 125.89 850.385C125.712 850.338 125.53 850.301 125.344 850.273C125.166 850.245 125.003 850.231 124.854 850.231C124.546 850.231 124.308 850.268 124.14 850.343C123.972 850.408 123.888 850.515 123.888 850.665C123.888 850.767 123.934 850.851 124.028 850.917C124.121 850.982 124.298 851.043 124.56 851.099L124.994 851.197C125.89 851.402 126.524 851.687 126.898 852.051C127.28 852.405 127.472 852.867 127.472 853.437ZM135.733 852.065C135.733 852.643 135.644 853.161 135.467 853.619C135.289 854.067 135.037 854.445 134.711 854.753C134.393 855.061 134.011 855.294 133.563 855.453C133.115 855.611 132.615 855.691 132.065 855.691C131.514 855.691 131.015 855.607 130.567 855.439C130.119 855.271 129.731 855.033 129.405 854.725C129.087 854.407 128.84 854.025 128.663 853.577C128.485 853.129 128.397 852.625 128.397 852.065C128.397 851.514 128.485 851.015 128.663 850.567C128.84 850.119 129.087 849.741 129.405 849.433C129.731 849.115 130.119 848.873 130.567 848.705C131.015 848.537 131.514 848.453 132.065 848.453C132.615 848.453 133.115 848.541 133.563 848.719C134.011 848.887 134.393 849.129 134.711 849.447C135.037 849.755 135.289 850.133 135.467 850.581C135.644 851.029 135.733 851.523 135.733 852.065ZM130.833 852.065C130.833 852.634 130.94 853.073 131.155 853.381C131.379 853.679 131.687 853.829 132.079 853.829C132.471 853.829 132.769 853.675 132.975 853.367C133.189 853.059 133.297 852.625 133.297 852.065C133.297 851.505 133.189 851.075 132.975 850.777C132.76 850.469 132.457 850.315 132.065 850.315C131.673 850.315 131.369 850.469 131.155 850.777C130.94 851.075 130.833 851.505 130.833 852.065ZM116.972 860.745C118.045 860.745 118.862 860.969 119.422 861.417C119.982 861.855 120.262 862.448 120.262 863.195C120.262 863.643 120.14 864.025 119.898 864.343C119.664 864.651 119.384 864.884 119.058 865.043C119.254 865.117 119.436 865.211 119.604 865.323C119.772 865.435 119.921 865.575 120.052 865.743C120.182 865.911 120.285 866.107 120.36 866.331C120.434 866.555 120.472 866.816 120.472 867.115C120.472 867.516 120.383 867.875 120.206 868.193C120.038 868.51 119.8 868.781 119.492 869.005C119.184 869.229 118.815 869.397 118.386 869.509C117.966 869.63 117.504 869.691 117 869.691C116.029 869.691 115.296 869.555 114.802 869.285C114.307 869.014 114.06 868.669 114.06 868.249C114.06 867.997 114.12 867.782 114.242 867.605C114.363 867.418 114.512 867.273 114.69 867.171C114.876 867.301 115.124 867.441 115.432 867.591C115.749 867.731 116.16 867.801 116.664 867.801C117.14 867.801 117.49 867.717 117.714 867.549C117.947 867.381 118.064 867.161 118.064 866.891C118.064 866.62 117.97 866.415 117.784 866.275C117.606 866.135 117.294 866.065 116.846 866.065H115.53C115.464 865.962 115.408 865.836 115.362 865.687C115.315 865.537 115.292 865.36 115.292 865.155C115.292 864.94 115.31 864.758 115.348 864.609C115.394 864.45 115.455 864.319 115.53 864.217H116.846C117.518 864.217 117.854 863.96 117.854 863.447C117.854 863.204 117.746 863.008 117.532 862.859C117.317 862.709 116.995 862.635 116.566 862.635C116.183 862.635 115.847 862.681 115.558 862.775C115.268 862.859 115.03 862.966 114.844 863.097C114.685 862.985 114.554 862.849 114.452 862.691C114.349 862.523 114.298 862.327 114.298 862.103C114.298 861.636 114.54 861.295 115.026 861.081C115.511 860.857 116.16 860.745 116.972 860.745Z" fill="white"/>
<path d="M151.784 751.249C151.515 751.31 151.247 751.142 151.185 750.873L150.184 746.485C150.123 746.216 150.292 745.948 150.561 745.887C150.83 745.825 151.098 745.994 151.159 746.263L152.049 750.163L155.949 749.273C156.218 749.212 156.486 749.38 156.547 749.65C156.609 749.919 156.44 750.187 156.171 750.248L151.784 751.249ZM198.05 546.362C212.971 574.129 217.944 599.157 210.925 630.346C203.915 661.491 184.952 698.755 152.096 751.028L151.249 750.495C184.102 698.228 202.981 661.09 209.949 630.126C216.907 599.208 211.994 574.424 197.169 546.835L198.05 546.362Z" fill="#FC9685"/>
<circle cx="125.916" cy="475.054" r="71.0443" stroke="white"/>
<circle cx="117.332" cy="460.745" r="71.5443" fill="#FC9685"/>
<path d="M102.588 461.716C102.98 461.716 103.278 461.627 103.484 461.45C103.698 461.263 103.806 460.983 103.806 460.61C103.806 460.255 103.694 459.984 103.47 459.798C103.255 459.602 102.938 459.504 102.518 459.504C102.368 459.504 102.242 459.508 102.14 459.518C102.046 459.518 101.948 459.527 101.846 459.546V461.716H102.588ZM101.86 466.21C101.757 466.238 101.594 466.266 101.37 466.294C101.155 466.322 100.94 466.336 100.726 466.336C100.511 466.336 100.32 466.317 100.152 466.28C99.993 466.252 99.8576 466.196 99.7456 466.112C99.6336 466.028 99.5496 465.911 99.4936 465.762C99.4376 465.612 99.4096 465.416 99.4096 465.174V458.58C99.4096 458.384 99.461 458.234 99.5636 458.132C99.6756 458.02 99.825 457.931 100.012 457.866C100.329 457.754 100.688 457.674 101.09 457.628C101.5 457.572 101.911 457.544 102.322 457.544C103.61 457.544 104.594 457.819 105.276 458.37C105.957 458.92 106.298 459.667 106.298 460.61C106.298 461.067 106.223 461.482 106.074 461.856C105.934 462.22 105.719 462.537 105.43 462.808C105.15 463.069 104.79 463.274 104.352 463.424C103.922 463.564 103.423 463.634 102.854 463.634H101.86V466.21ZM110.138 464.754C110.296 464.754 110.469 464.74 110.656 464.712C110.852 464.674 110.996 464.628 111.09 464.572V463.452L110.082 463.536C109.82 463.554 109.606 463.61 109.438 463.704C109.27 463.797 109.186 463.937 109.186 464.124C109.186 464.31 109.256 464.464 109.396 464.586C109.545 464.698 109.792 464.754 110.138 464.754ZM110.026 459.252C110.53 459.252 110.987 459.303 111.398 459.406C111.818 459.508 112.172 459.667 112.462 459.882C112.76 460.087 112.989 460.353 113.148 460.68C113.306 460.997 113.386 461.375 113.386 461.814V464.95C113.386 465.192 113.316 465.393 113.176 465.552C113.045 465.701 112.886 465.832 112.7 465.944C112.093 466.308 111.239 466.49 110.138 466.49C109.643 466.49 109.195 466.443 108.794 466.35C108.402 466.256 108.061 466.116 107.772 465.93C107.492 465.743 107.272 465.505 107.114 465.216C106.964 464.926 106.89 464.59 106.89 464.208C106.89 463.564 107.081 463.069 107.464 462.724C107.846 462.378 108.439 462.164 109.242 462.08L111.076 461.884V461.786C111.076 461.515 110.954 461.324 110.712 461.212C110.478 461.09 110.138 461.03 109.69 461.03C109.335 461.03 108.99 461.067 108.654 461.142C108.318 461.216 108.014 461.31 107.744 461.422C107.622 461.338 107.52 461.212 107.436 461.044C107.352 460.866 107.31 460.684 107.31 460.498C107.31 460.255 107.366 460.064 107.478 459.924C107.599 459.774 107.781 459.648 108.024 459.546C108.294 459.443 108.612 459.368 108.976 459.322C109.349 459.275 109.699 459.252 110.026 459.252ZM120.581 464.236C120.581 464.945 120.315 465.5 119.783 465.902C119.251 466.303 118.467 466.504 117.431 466.504C117.039 466.504 116.675 466.476 116.339 466.42C116.003 466.364 115.714 466.28 115.471 466.168C115.238 466.046 115.051 465.897 114.911 465.72C114.78 465.542 114.715 465.332 114.715 465.09C114.715 464.866 114.762 464.679 114.855 464.53C114.948 464.371 115.06 464.24 115.191 464.138C115.462 464.287 115.77 464.422 116.115 464.544C116.47 464.656 116.876 464.712 117.333 464.712C117.622 464.712 117.842 464.67 117.991 464.586C118.15 464.502 118.229 464.39 118.229 464.25C118.229 464.119 118.173 464.016 118.061 463.942C117.949 463.867 117.762 463.806 117.501 463.76L117.081 463.676C116.269 463.517 115.662 463.27 115.261 462.934C114.869 462.588 114.673 462.098 114.673 461.464C114.673 461.118 114.748 460.806 114.897 460.526C115.046 460.246 115.256 460.012 115.527 459.826C115.798 459.639 116.12 459.494 116.493 459.392C116.876 459.289 117.296 459.238 117.753 459.238C118.098 459.238 118.42 459.266 118.719 459.322C119.027 459.368 119.293 459.443 119.517 459.546C119.741 459.648 119.918 459.784 120.049 459.952C120.18 460.11 120.245 460.302 120.245 460.526C120.245 460.74 120.203 460.927 120.119 461.086C120.044 461.235 119.946 461.361 119.825 461.464C119.75 461.417 119.638 461.37 119.489 461.324C119.34 461.268 119.176 461.221 118.999 461.184C118.822 461.137 118.64 461.1 118.453 461.072C118.276 461.044 118.112 461.03 117.963 461.03C117.655 461.03 117.417 461.067 117.249 461.142C117.081 461.207 116.997 461.314 116.997 461.464C116.997 461.566 117.044 461.65 117.137 461.716C117.23 461.781 117.408 461.842 117.669 461.898L118.103 461.996C118.999 462.201 119.634 462.486 120.007 462.85C120.39 463.204 120.581 463.666 120.581 464.236ZM127.472 464.236C127.472 464.945 127.206 465.5 126.674 465.902C126.142 466.303 125.358 466.504 124.322 466.504C123.93 466.504 123.566 466.476 123.23 466.42C122.894 466.364 122.604 466.28 122.362 466.168C122.128 466.046 121.942 465.897 121.802 465.72C121.671 465.542 121.606 465.332 121.606 465.09C121.606 464.866 121.652 464.679 121.746 464.53C121.839 464.371 121.951 464.24 122.082 464.138C122.352 464.287 122.66 464.422 123.006 464.544C123.36 464.656 123.766 464.712 124.224 464.712C124.513 464.712 124.732 464.67 124.882 464.586C125.04 464.502 125.12 464.39 125.12 464.25C125.12 464.119 125.064 464.016 124.952 463.942C124.84 463.867 124.653 463.806 124.392 463.76L123.972 463.676C123.16 463.517 122.553 463.27 122.152 462.934C121.76 462.588 121.564 462.098 121.564 461.464C121.564 461.118 121.638 460.806 121.788 460.526C121.937 460.246 122.147 460.012 122.418 459.826C122.688 459.639 123.01 459.494 123.384 459.392C123.766 459.289 124.186 459.238 124.644 459.238C124.989 459.238 125.311 459.266 125.61 459.322C125.918 459.368 126.184 459.443 126.408 459.546C126.632 459.648 126.809 459.784 126.94 459.952C127.07 460.11 127.136 460.302 127.136 460.526C127.136 460.74 127.094 460.927 127.01 461.086C126.935 461.235 126.837 461.361 126.716 461.464C126.641 461.417 126.529 461.37 126.38 461.324C126.23 461.268 126.067 461.221 125.89 461.184C125.712 461.137 125.53 461.1 125.344 461.072C125.166 461.044 125.003 461.03 124.854 461.03C124.546 461.03 124.308 461.067 124.14 461.142C123.972 461.207 123.888 461.314 123.888 461.464C123.888 461.566 123.934 461.65 124.028 461.716C124.121 461.781 124.298 461.842 124.56 461.898L124.994 461.996C125.89 462.201 126.524 462.486 126.898 462.85C127.28 463.204 127.472 463.666 127.472 464.236ZM135.733 462.864C135.733 463.442 135.644 463.96 135.467 464.418C135.289 464.866 135.037 465.244 134.711 465.552C134.393 465.86 134.011 466.093 133.563 466.252C133.115 466.41 132.615 466.49 132.065 466.49C131.514 466.49 131.015 466.406 130.567 466.238C130.119 466.07 129.731 465.832 129.405 465.524C129.087 465.206 128.84 464.824 128.663 464.376C128.485 463.928 128.397 463.424 128.397 462.864C128.397 462.313 128.485 461.814 128.663 461.366C128.84 460.918 129.087 460.54 129.405 460.232C129.731 459.914 130.119 459.672 130.567 459.504C131.015 459.336 131.514 459.252 132.065 459.252C132.615 459.252 133.115 459.34 133.563 459.518C134.011 459.686 134.393 459.928 134.711 460.246C135.037 460.554 135.289 460.932 135.467 461.38C135.644 461.828 135.733 462.322 135.733 462.864ZM130.833 462.864C130.833 463.433 130.94 463.872 131.155 464.18C131.379 464.478 131.687 464.628 132.079 464.628C132.471 464.628 132.769 464.474 132.975 464.166C133.189 463.858 133.297 463.424 133.297 462.864C133.297 462.304 133.189 461.874 132.975 461.576C132.76 461.268 132.457 461.114 132.065 461.114C131.673 461.114 131.369 461.268 131.155 461.576C130.94 461.874 130.833 462.304 130.833 462.864ZM117.049 471.544C117.581 471.544 118.053 471.614 118.463 471.754C118.874 471.884 119.224 472.066 119.513 472.3C119.803 472.533 120.022 472.808 120.171 473.126C120.321 473.443 120.395 473.784 120.395 474.148C120.395 475.128 119.84 476.061 118.729 476.948L116.895 478.418H120.255C120.311 478.52 120.363 478.651 120.409 478.81C120.465 478.968 120.493 479.141 120.493 479.328C120.493 479.664 120.419 479.906 120.269 480.056C120.12 480.196 119.924 480.266 119.681 480.266H114.823C114.618 480.126 114.455 479.948 114.333 479.734C114.221 479.51 114.165 479.248 114.165 478.95C114.165 478.632 114.231 478.366 114.361 478.152C114.492 477.928 114.637 477.75 114.795 477.62L116.727 475.968C116.97 475.762 117.171 475.58 117.329 475.422C117.488 475.254 117.614 475.104 117.707 474.974C117.81 474.843 117.88 474.722 117.917 474.61C117.964 474.498 117.987 474.39 117.987 474.288C117.987 474.026 117.871 473.821 117.637 473.672C117.413 473.522 117.133 473.448 116.797 473.448C116.424 473.448 116.088 473.508 115.789 473.63C115.5 473.742 115.257 473.863 115.061 473.994C114.903 473.882 114.772 473.742 114.669 473.574C114.567 473.406 114.515 473.21 114.515 472.986C114.515 472.5 114.744 472.141 115.201 471.908C115.659 471.665 116.275 471.544 117.049 471.544Z" fill="white"/>
<path d="M75.9466 362.048C76.2159 362.11 76.4839 361.941 76.5453 361.672L77.546 357.284C77.6074 357.015 77.4389 356.747 77.1697 356.686C76.9004 356.624 76.6324 356.793 76.571 357.062L75.6815 360.962L71.7817 360.072C71.5125 360.011 71.2444 360.18 71.183 360.449C71.1216 360.718 71.2901 360.986 71.5593 361.047L75.9466 362.048ZM29.6807 157.161C14.7598 184.928 9.7867 209.956 16.8059 241.145C23.8152 272.29 42.7783 309.554 75.6345 361.827L76.4811 361.295C43.6283 309.028 24.7499 271.889 17.7815 240.926C10.8231 210.007 15.7362 185.223 30.5615 157.634L29.6807 157.161Z" fill="#FC9685"/>
<circle cx="125.916" cy="85.8531" r="71.0443" stroke="white"/>
<circle cx="117.332" cy="71.5443" r="71.5443" fill="#FC9685"/>
<path d="M102.588 72.5148C102.98 72.5148 103.278 72.4262 103.484 72.2488C103.698 72.0622 103.806 71.7822 103.806 71.4088C103.806 71.0542 103.694 70.7835 103.47 70.5968C103.255 70.4008 102.938 70.3028 102.518 70.3028C102.368 70.3028 102.242 70.3075 102.14 70.3168C102.046 70.3168 101.948 70.3262 101.846 70.3448V72.5148H102.588ZM101.86 77.0088C101.757 77.0368 101.594 77.0648 101.37 77.0928C101.155 77.1208 100.94 77.1348 100.726 77.1348C100.511 77.1348 100.32 77.1162 100.152 77.0788C99.993 77.0508 99.8576 76.9948 99.7456 76.9108C99.6336 76.8268 99.5496 76.7102 99.4936 76.5608C99.4376 76.4115 99.4096 76.2155 99.4096 75.9728V69.3788C99.4096 69.1828 99.461 69.0335 99.5636 68.9308C99.6756 68.8188 99.825 68.7302 100.012 68.6648C100.329 68.5528 100.688 68.4735 101.09 68.4268C101.5 68.3708 101.911 68.3428 102.322 68.3428C103.61 68.3428 104.594 68.6182 105.276 69.1688C105.957 69.7195 106.298 70.4662 106.298 71.4088C106.298 71.8662 106.223 72.2815 106.074 72.6548C105.934 73.0188 105.719 73.3362 105.43 73.6068C105.15 73.8682 104.79 74.0735 104.352 74.2228C103.922 74.3628 103.423 74.4328 102.854 74.4328H101.86V77.0088ZM110.138 75.5528C110.296 75.5528 110.469 75.5388 110.656 75.5108C110.852 75.4735 110.996 75.4268 111.09 75.3708V74.2508L110.082 74.3348C109.82 74.3535 109.606 74.4095 109.438 74.5028C109.27 74.5962 109.186 74.7362 109.186 74.9228C109.186 75.1095 109.256 75.2635 109.396 75.3848C109.545 75.4968 109.792 75.5528 110.138 75.5528ZM110.026 70.0508C110.53 70.0508 110.987 70.1022 111.398 70.2048C111.818 70.3075 112.172 70.4662 112.462 70.6808C112.76 70.8862 112.989 71.1522 113.148 71.4788C113.306 71.7962 113.386 72.1742 113.386 72.6128V75.7488C113.386 75.9915 113.316 76.1922 113.176 76.3508C113.045 76.5002 112.886 76.6308 112.7 76.7428C112.093 77.1068 111.239 77.2888 110.138 77.2888C109.643 77.2888 109.195 77.2422 108.794 77.1488C108.402 77.0555 108.061 76.9155 107.772 76.7288C107.492 76.5422 107.272 76.3042 107.114 76.0148C106.964 75.7255 106.89 75.3895 106.89 75.0068C106.89 74.3628 107.081 73.8682 107.464 73.5228C107.846 73.1775 108.439 72.9628 109.242 72.8788L111.076 72.6828V72.5848C111.076 72.3142 110.954 72.1228 110.712 72.0108C110.478 71.8895 110.138 71.8288 109.69 71.8288C109.335 71.8288 108.99 71.8662 108.654 71.9408C108.318 72.0155 108.014 72.1088 107.744 72.2208C107.622 72.1368 107.52 72.0108 107.436 71.8428C107.352 71.6655 107.31 71.4835 107.31 71.2968C107.31 71.0542 107.366 70.8628 107.478 70.7228C107.599 70.5735 107.781 70.4475 108.024 70.3448C108.294 70.2422 108.612 70.1675 108.976 70.1208C109.349 70.0742 109.699 70.0508 110.026 70.0508ZM120.581 75.0348C120.581 75.7442 120.315 76.2995 119.783 76.7008C119.251 77.1022 118.467 77.3028 117.431 77.3028C117.039 77.3028 116.675 77.2748 116.339 77.2188C116.003 77.1628 115.714 77.0788 115.471 76.9668C115.238 76.8455 115.051 76.6962 114.911 76.5188C114.78 76.3415 114.715 76.1315 114.715 75.8888C114.715 75.6648 114.762 75.4782 114.855 75.3288C114.948 75.1702 115.06 75.0395 115.191 74.9368C115.462 75.0862 115.77 75.2215 116.115 75.3428C116.47 75.4548 116.876 75.5108 117.333 75.5108C117.622 75.5108 117.842 75.4688 117.991 75.3848C118.15 75.3008 118.229 75.1888 118.229 75.0488C118.229 74.9182 118.173 74.8155 118.061 74.7408C117.949 74.6662 117.762 74.6055 117.501 74.5588L117.081 74.4748C116.269 74.3162 115.662 74.0688 115.261 73.7328C114.869 73.3875 114.673 72.8975 114.673 72.2628C114.673 71.9175 114.748 71.6048 114.897 71.3248C115.046 71.0448 115.256 70.8115 115.527 70.6248C115.798 70.4382 116.12 70.2935 116.493 70.1908C116.876 70.0882 117.296 70.0368 117.753 70.0368C118.098 70.0368 118.42 70.0648 118.719 70.1208C119.027 70.1675 119.293 70.2422 119.517 70.3448C119.741 70.4475 119.918 70.5828 120.049 70.7508C120.18 70.9095 120.245 71.1008 120.245 71.3248C120.245 71.5395 120.203 71.7262 120.119 71.8848C120.044 72.0342 119.946 72.1602 119.825 72.2628C119.75 72.2162 119.638 72.1695 119.489 72.1228C119.34 72.0668 119.176 72.0202 118.999 71.9828C118.822 71.9362 118.64 71.8988 118.453 71.8708C118.276 71.8428 118.112 71.8288 117.963 71.8288C117.655 71.8288 117.417 71.8662 117.249 71.9408C117.081 72.0062 116.997 72.1135 116.997 72.2628C116.997 72.3655 117.044 72.4495 117.137 72.5148C117.23 72.5802 117.408 72.6408 117.669 72.6968L118.103 72.7948C118.999 73.0002 119.634 73.2848 120.007 73.6488C120.39 74.0035 120.581 74.4655 120.581 75.0348ZM127.472 75.0348C127.472 75.7442 127.206 76.2995 126.674 76.7008C126.142 77.1022 125.358 77.3028 124.322 77.3028C123.93 77.3028 123.566 77.2748 123.23 77.2188C122.894 77.1628 122.604 77.0788 122.362 76.9668C122.128 76.8455 121.942 76.6962 121.802 76.5188C121.671 76.3415 121.606 76.1315 121.606 75.8888C121.606 75.6648 121.652 75.4782 121.746 75.3288C121.839 75.1702 121.951 75.0395 122.082 74.9368C122.352 75.0862 122.66 75.2215 123.006 75.3428C123.36 75.4548 123.766 75.5108 124.224 75.5108C124.513 75.5108 124.732 75.4688 124.882 75.3848C125.04 75.3008 125.12 75.1888 125.12 75.0488C125.12 74.9182 125.064 74.8155 124.952 74.7408C124.84 74.6662 124.653 74.6055 124.392 74.5588L123.972 74.4748C123.16 74.3162 122.553 74.0688 122.152 73.7328C121.76 73.3875 121.564 72.8975 121.564 72.2628C121.564 71.9175 121.638 71.6048 121.788 71.3248C121.937 71.0448 122.147 70.8115 122.418 70.6248C122.688 70.4382 123.01 70.2935 123.384 70.1908C123.766 70.0882 124.186 70.0368 124.644 70.0368C124.989 70.0368 125.311 70.0648 125.61 70.1208C125.918 70.1675 126.184 70.2422 126.408 70.3448C126.632 70.4475 126.809 70.5828 126.94 70.7508C127.07 70.9095 127.136 71.1008 127.136 71.3248C127.136 71.5395 127.094 71.7262 127.01 71.8848C126.935 72.0342 126.837 72.1602 126.716 72.2628C126.641 72.2162 126.529 72.1695 126.38 72.1228C126.23 72.0668 126.067 72.0202 125.89 71.9828C125.712 71.9362 125.53 71.8988 125.344 71.8708C125.166 71.8428 125.003 71.8288 124.854 71.8288C124.546 71.8288 124.308 71.8662 124.14 71.9408C123.972 72.0062 123.888 72.1135 123.888 72.2628C123.888 72.3655 123.934 72.4495 124.028 72.5148C124.121 72.5802 124.298 72.6408 124.56 72.6968L124.994 72.7948C125.89 73.0002 126.524 73.2848 126.898 73.6488C127.28 74.0035 127.472 74.4655 127.472 75.0348ZM135.733 73.6628C135.733 74.2415 135.644 74.7595 135.467 75.2168C135.289 75.6648 135.037 76.0428 134.711 76.3508C134.393 76.6588 134.011 76.8922 133.563 77.0508C133.115 77.2095 132.615 77.2888 132.065 77.2888C131.514 77.2888 131.015 77.2048 130.567 77.0368C130.119 76.8688 129.731 76.6308 129.405 76.3228C129.087 76.0055 128.84 75.6228 128.663 75.1748C128.485 74.7268 128.397 74.2228 128.397 73.6628C128.397 73.1122 128.485 72.6128 128.663 72.1648C128.84 71.7168 129.087 71.3388 129.405 71.0308C129.731 70.7135 130.119 70.4708 130.567 70.3028C131.015 70.1348 131.514 70.0508 132.065 70.0508C132.615 70.0508 133.115 70.1395 133.563 70.3168C134.011 70.4848 134.393 70.7275 134.711 71.0448C135.037 71.3528 135.289 71.7308 135.467 72.1788C135.644 72.6268 135.733 73.1215 135.733 73.6628ZM130.833 73.6628C130.833 74.2322 130.94 74.6708 131.155 74.9788C131.379 75.2775 131.687 75.4268 132.079 75.4268C132.471 75.4268 132.769 75.2728 132.975 74.9648C133.189 74.6568 133.297 74.2228 133.297 73.6628C133.297 73.1028 133.189 72.6735 132.975 72.3748C132.76 72.0668 132.457 71.9128 132.065 71.9128C131.673 71.9128 131.369 72.0668 131.155 72.3748C130.94 72.6735 130.833 73.1028 130.833 73.6628ZM116.755 84.8208L115.355 85.2548C115.215 85.1615 115.075 85.0308 114.935 84.8628C114.795 84.6948 114.725 84.4615 114.725 84.1628C114.725 83.6028 115.065 83.2108 115.747 82.9868L117.315 82.4548H117.833C118.234 82.4548 118.551 82.5715 118.785 82.8048C119.018 83.0382 119.135 83.3555 119.135 83.7568V91.0508C119.032 91.0695 118.878 91.0928 118.673 91.1208C118.477 91.1582 118.276 91.1768 118.071 91.1768C117.865 91.1768 117.679 91.1628 117.511 91.1348C117.352 91.1068 117.217 91.0508 117.105 90.9668C116.993 90.8828 116.904 90.7708 116.839 90.6308C116.783 90.4815 116.755 90.2902 116.755 90.0568V84.8208Z" fill="white"/>
</svg>
