<svg width="24" height="24" viewBox="0 0 24 24" fill="none" xmlns="http://www.w3.org/2000/svg">
<g filter="url(#filter0_d_995_421)">
<circle cx="12" cy="10" r="10" fill="#FC9685"/>
</g>
<path d="M6.34885 9.41108C5.896 8.95804 5.57302 8.39179 5.41359 7.77139C5.25416 7.15099 5.26413 6.49917 5.44246 5.88394C5.62079 5.26871 5.96095 4.7126 6.42744 4.27363C6.89394 3.83465 7.46968 3.5289 8.09461 3.38827C8.71953 3.24764 9.37075 3.27727 9.98032 3.47409C10.5899 3.6709 11.1355 4.02768 11.5602 4.50721C11.9849 4.98674 12.2731 5.57144 12.3948 6.20033C12.5165 6.82922 12.4673 7.47925 12.2521 8.0826L17.5581 13.3886V15.5581H15.3886L15.3886 14.1117L13.9422 14.1117L13.9422 12.6654L12.4959 12.6654L12.4959 11.219L11.0495 11.219L10.0826 10.2521C9.44446 10.4797 8.75483 10.5214 8.09389 10.3725C7.43294 10.2236 6.82782 9.89025 6.34885 9.41108ZM7.43362 6.87996C7.62541 7.07176 7.88555 7.17951 8.15679 7.17951C8.42804 7.17951 8.68817 7.07176 8.87997 6.87996C9.07177 6.68816 9.17952 6.42802 9.17952 6.15678C9.17952 5.88554 9.07177 5.6254 8.87997 5.4336C8.68817 5.2418 8.42804 5.13405 8.15679 5.13405C7.88555 5.13405 7.62541 5.2418 7.43362 5.4336C7.24182 5.6254 7.13407 5.88554 7.13407 6.15678C7.13407 6.42802 7.24182 6.68816 7.43362 6.87996Z" fill="white"/>
<defs>
<filter id="filter0_d_995_421" x="0" y="0" width="24" height="24" filterUnits="userSpaceOnUse" color-interpolation-filters="sRGB">
<feFlood flood-opacity="0" result="BackgroundImageFix"/>
<feColorMatrix in="SourceAlpha" type="matrix" values="0 0 0 0 0 0 0 0 0 0 0 0 0 0 0 0 0 0 127 0" result="hardAlpha"/>
<feOffset dy="2"/>
<feGaussianBlur stdDeviation="1"/>
<feComposite in2="hardAlpha" operator="out"/>
<feColorMatrix type="matrix" values="0 0 0 0 0 0 0 0 0 0 0 0 0 0 0 0 0 0 0.1 0"/>
<feBlend mode="normal" in2="BackgroundImageFix" result="effect1_dropShadow_995_421"/>
<feBlend mode="normal" in="SourceGraphic" in2="effect1_dropShadow_995_421" result="shape"/>
</filter>
</defs>
</svg>
