<svg width="47" height="46" viewBox="0 0 47 46" fill="none" xmlns="http://www.w3.org/2000/svg">
<path d="M13.5335 22.6649C13.5335 20.0889 11.3987 18 8.76627 18C6.1338 18 4 20.0889 4 22.6649C4 25.2427 6.13333 27.3306 8.76627 27.3306C11.3992 27.3306 13.5335 25.2427 13.5335 22.6649Z" fill="#FC9685"/>
<path d="M29.7663 10C27.1343 10 25 12.0889 25 14.6649C25 17.2427 27.1343 19.3297 29.7663 19.3297C32.3987 19.3297 34.533 17.2427 34.533 14.6649C34.533 12.0889 32.3992 10 29.7663 10Z" fill="#FC9685"/>
<path d="M37.7663 18C35.1343 18 33 20.0889 33 22.6649C33 25.2427 35.1343 27.3297 37.7663 27.3297C40.3987 27.3297 42.533 25.2427 42.533 22.6649C42.533 20.0889 40.3992 18 37.7663 18Z" fill="#FC9685"/>
<path d="M31.0585 24.8299C30.7271 24.4302 30.2581 23.9674 29.7195 23.4821C28.2822 21.6591 26.0342 20.4797 23.5 20.4797C21.2444 20.4797 19.2169 21.4144 17.7838 22.9039C16.9698 23.5971 16.246 24.2738 15.7854 24.8304L15.4771 25.1988C14.0389 26.9151 12.2486 29.0504 12.2618 32.6738C12.2745 36.0387 15.0743 38.778 18.5025 38.778C19.4538 38.78 20.3928 38.5669 21.2461 38.1553C22.0995 37.7436 22.8441 37.1446 23.4219 36.4049C23.9998 37.1448 24.7447 37.744 25.5983 38.1557C26.4519 38.5674 27.3912 38.7803 28.3428 38.778C31.7696 38.778 34.5689 36.0392 34.5821 32.6738C34.5952 29.0504 32.8045 26.9151 31.3668 25.1988L31.0585 24.8299Z" fill="#FC9685"/>
<path d="M17.2522 20.281C20.153 20.281 22.5045 17.9795 22.5045 15.1405C22.5045 12.3015 20.153 10 17.2522 10C14.3515 10 12 12.3015 12 15.1405C12 17.9795 14.3515 20.281 17.2522 20.281Z" fill="#FC9685"/>
</svg>
