<svg width="50" height="50" viewBox="0 0 50 50" fill="none" xmlns="http://www.w3.org/2000/svg">
<path d="M31.7659 33.5625L35.2659 30.0625C35.7373 29.5969 36.3338 29.2783 36.9828 29.1451C37.6318 29.012 38.3055 29.0701 38.9222 29.3125L43.1878 31.0156C43.8109 31.2686 44.3453 31.7003 44.7234 32.2564C45.1016 32.8125 45.3066 33.4681 45.3128 34.1406V41.9531C45.3092 42.4106 45.213 42.8626 45.0301 43.2819C44.8472 43.7012 44.5813 44.0792 44.2485 44.3931C43.9156 44.7069 43.5227 44.9502 43.0934 45.1082C42.6641 45.2662 42.2072 45.3357 41.7503 45.3125C11.8597 43.4531 5.82843 18.1406 4.6878 8.45313C4.63485 7.9774 4.68323 7.49586 4.82975 7.04017C4.97627 6.58449 5.21762 6.16499 5.53791 5.80928C5.8582 5.45356 6.25017 5.1697 6.68805 4.97635C7.12592 4.78301 7.59977 4.68457 8.07843 4.6875H15.6253C16.2988 4.6895 16.9562 4.89292 17.5131 5.27161C18.07 5.6503 18.5009 6.18694 18.7503 6.8125L20.4534 11.0781C20.7038 11.6923 20.7677 12.3666 20.6371 13.0169C20.5065 13.6672 20.1872 14.2645 19.7191 14.7344L16.2191 18.2344C16.2191 18.2344 18.2347 31.875 31.7659 33.5625Z" fill="#1A5163"/>
</svg>
