<svg width="50" height="50" viewBox="0 0 50 50" fill="none" xmlns="http://www.w3.org/2000/svg">
<path d="M37.3751 34.8875C40.6574 31.6035 42.5012 27.1505 42.5012 22.5075C42.5012 17.8644 40.6574 13.4114 37.3751 10.1275C35.7504 8.50167 33.8212 7.21194 31.6979 6.332C29.5745 5.45206 27.2986 4.99915 25.0001 4.99915C22.7016 4.99915 20.4257 5.45206 18.3023 6.332C16.179 7.21194 14.2498 8.50167 12.6251 10.1275C9.34284 13.4114 7.49902 17.8644 7.49902 22.5075C7.49902 27.1505 9.34284 31.6035 12.6251 34.8875L16.4276 38.635L21.5351 43.5975L21.8676 43.8925C23.8051 45.4625 26.6426 45.3625 28.4676 43.5975L34.5551 37.6725L37.3751 34.8875ZM25.0001 30C23.011 30 21.1033 29.2098 19.6968 27.8033C18.2903 26.3968 17.5001 24.4891 17.5001 22.5C17.5001 20.5109 18.2903 18.6032 19.6968 17.1967C21.1033 15.7902 23.011 15 25.0001 15C26.9892 15 28.8969 15.7902 30.3034 17.1967C31.7099 18.6032 32.5001 20.5109 32.5001 22.5C32.5001 24.4891 31.7099 26.3968 30.3034 27.8033C28.8969 29.2098 26.9892 30 25.0001 30Z" fill="#1A5163"/>
</svg>
