<svg width="48" height="34" viewBox="0 0 48 34" fill="none" xmlns="http://www.w3.org/2000/svg">
<path d="M30.8723 0L30.4192 0.8815L25.4348 10.75H11.5003C9.89639 10.7444 8.3239 11.0797 6.96906 11.7162L2.60819 8.43875L0 10.3738L4.41887 13.6068C3.74691 14.3995 3.32191 15.2933 3.17486 16.2231C3.0278 17.153 3.16239 18.0954 3.56881 18.9818L4.872 21.7956L3.17188 26.5404L3.11569 26.7084V33.5938H6.74069V27.043L8.497 22.1302L8.60937 21.7096L8.439 21.332L6.96725 18.099C6.81105 17.7323 6.73517 17.3494 6.7425 16.9648C6.73669 16.5004 6.85579 16.0398 7.09284 15.6099C7.32988 15.18 7.68012 14.7894 8.12309 14.461C8.56605 14.1326 9.09286 13.873 9.67273 13.6972C10.2526 13.5215 10.8739 13.4332 11.5003 13.4375H26.0565L32.1175 17.8463V14.0691L28.8314 11.6758L32.5706 4.24222L33.0237 4.74613L33.5331 5.37634H36.9315L42.4832 8.48444L40.9534 10.75H33.93V18.6445L32.2299 22.4245L32.1175 22.6341V27.043L33.93 32.418V33.5938H37.555V32.082L35.7425 26.707V23.0117L37.4426 19.2318L37.555 19.0221V13.4375H43.2191L47.1268 7.64191L45.8816 6.97003L38.1785 2.6875H35.5721L33.8176 0.630219L33.3047 0H30.8723ZM12.5769 20.1562L10.3675 26.707V33.5938H13.9925V27.043L15.4081 22.8438H17.1082C17.7444 23.1582 19.9973 24.1875 23.055 24.1875H24.8675V27.043L26.68 32.418V33.5938H30.305V32.082L28.4925 26.707V21.5H23.055C21.1283 21.5 18.6361 20.3659 18.6361 20.3659L18.183 20.1562H12.5769Z" fill="#1A5163"/>
</svg>
