<svg width="42" height="34" viewBox="0 0 42 34" fill="none" xmlns="http://www.w3.org/2000/svg">
<path d="M35.5837 0.333313H6.41699C4.75939 0.333313 3.16968 0.991793 1.99758 2.1639C0.825473 3.336 0.166992 4.92571 0.166992 6.58331V27.4166C0.166992 29.0742 0.825473 30.664 1.99758 31.8361C3.16968 33.0082 4.75939 33.6666 6.41699 33.6666H35.5837C37.2413 33.6666 38.831 33.0082 40.0031 31.8361C41.1752 30.664 41.8337 29.0742 41.8337 27.4166V6.58331C41.8337 4.92571 41.1752 3.336 40.0031 2.1639C38.831 0.991793 37.2413 0.333313 35.5837 0.333313ZM34.1878 4.49998L21.0003 14.3958L7.81283 4.49998H34.1878ZM35.5837 29.5H6.41699C5.86446 29.5 5.33455 29.2805 4.94385 28.8898C4.55315 28.4991 4.33366 27.9692 4.33366 27.4166V7.10415L19.7503 18.6666C20.1109 18.9371 20.5496 19.0833 21.0003 19.0833C21.4511 19.0833 21.8897 18.9371 22.2503 18.6666L37.667 7.10415V27.4166C37.667 27.9692 37.4475 28.4991 37.0568 28.8898C36.6661 29.2805 36.1362 29.5 35.5837 29.5Z" fill="#1A5163"/>
</svg>
