<svg width="42" height="42" viewBox="0 0 42 42" fill="none" xmlns="http://www.w3.org/2000/svg">
<path d="M27.7659 29.5625L31.2659 26.0625C31.7373 25.5969 32.3338 25.2783 32.9828 25.1451C33.6318 25.012 34.3055 25.0701 34.9222 25.3125L39.1878 27.0156C39.8109 27.2686 40.3453 27.7003 40.7234 28.2564C41.1016 28.8125 41.3066 29.4681 41.3128 30.1406V37.9531C41.3092 38.4106 41.213 38.8626 41.0301 39.2819C40.8472 39.7012 40.5813 40.0792 40.2485 40.3931C39.9156 40.7069 39.5227 40.9502 39.0934 41.1082C38.6641 41.2662 38.2072 41.3357 37.7503 41.3125C7.85968 39.4531 1.82843 14.1406 0.687801 4.45313C0.634852 3.9774 0.68323 3.49586 0.829751 3.04017C0.976272 2.58449 1.21762 2.16499 1.53791 1.80928C1.8582 1.45356 2.25017 1.1697 2.68805 0.976353C3.12592 0.783007 3.59977 0.684565 4.07843 0.687503H11.6253C12.2988 0.689496 12.9562 0.892921 13.5131 1.27161C14.07 1.6503 14.5009 2.18694 14.7503 2.8125L16.4534 7.07813C16.7038 7.6923 16.7677 8.36663 16.6371 9.0169C16.5065 9.66716 16.1872 10.2645 15.7191 10.7344L12.2191 14.2344C12.2191 14.2344 14.2347 27.875 27.7659 29.5625Z" fill="#1A5163"/>
</svg>
